<svg width="50" height="51" viewBox="0 0 50 51" fill="none" xmlns="http://www.w3.org/2000/svg">
<path d="M35.4927 0H14.5322C5.4277 0 0 5.4277 0 14.5322V35.4677C0 44.5972 5.4277 50.0249 14.5322 50.0249H35.4677C44.5722 50.0249 49.9999 44.5972 49.9999 35.4927V14.5322C50.0249 5.4277 44.5972 0 35.4927 0ZM25.0125 34.7173C19.6598 34.7173 15.3076 30.3651 15.3076 25.0125C15.3076 19.6598 19.6598 15.3076 25.0125 15.3076C30.3651 15.3076 34.7173 19.6598 34.7173 25.0125C34.7173 30.3651 30.3651 34.7173 25.0125 34.7173ZM39.8198 12.2061C39.6948 12.5062 39.5197 12.7814 39.2946 13.0315C39.0445 13.2566 38.7693 13.4317 38.4692 13.5568C38.169 13.6818 37.8439 13.7569 37.5187 13.7569C36.8434 13.7569 36.2181 13.5067 35.7428 13.0315C35.5177 12.7814 35.3426 12.5062 35.2175 12.2061C35.0925 11.9059 35.0175 11.5808 35.0175 11.2556C35.0175 10.9304 35.0925 10.6053 35.2175 10.3051C35.3426 9.97997 35.5177 9.72985 35.7428 9.47972C36.3181 8.90444 37.1935 8.6293 37.9939 8.80439C38.169 8.8294 38.3191 8.87942 38.4692 8.95446C38.6192 9.00449 38.7693 9.07952 38.9194 9.17957C39.0445 9.25461 39.1695 9.37967 39.2946 9.47972C39.5197 9.72985 39.6948 9.97997 39.8198 10.3051C39.9449 10.6053 40.0199 10.9304 40.0199 11.2556C40.0199 11.5808 39.9449 11.9059 39.8198 12.2061Z" fill="white"/>
</svg>
