<svg width="50" height="50" viewBox="0 0 50 50" fill="none" xmlns="http://www.w3.org/2000/svg">
<path d="M50 35.475C50 44.575 44.575 50 35.475 50H32.5C31.125 50 30 48.875 30 47.5V33.075C30 32.4 30.55 31.825 31.225 31.825L35.625 31.75C35.975 31.725 36.275 31.475 36.35 31.125L37.225 26.35C37.3 25.9 36.95 25.475 36.475 25.475L31.15 25.55C30.45 25.55 29.9 25 29.875 24.325L29.775 18.2C29.775 17.8 30.1 17.45 30.525 17.45L36.525 17.35C36.95 17.35 37.275 17.025 37.275 16.6L37.175 10.6C37.175 10.175 36.85 9.85 36.425 9.85L29.675 9.95003C25.525 10.025 22.225 13.425 22.3 17.575L22.425 24.45C22.45 25.15 21.9 25.7 21.2 25.725L18.2 25.775C17.775 25.775 17.45 26.1 17.45 26.525L17.525 31.275C17.525 31.7 17.85 32.025 18.275 32.025L21.275 31.975C21.975 31.975 22.525 32.525 22.55 33.2L22.775 47.45C22.8 48.85 21.675 50 20.275 50H14.525C5.425 50 0 44.575 0 35.45V14.525C0 5.425 5.425 0 14.525 0H35.475C44.575 0 50 5.425 50 14.525V35.475Z" fill="white"/>
</svg>
