<svg width="50" height="50" viewBox="0 0 50 50" fill="none" xmlns="http://www.w3.org/2000/svg">
<path d="M49.9589 23.5229C49.109 9.02492 35.9357 -2.14859 20.7627 0.351079C10.314 2.07585 1.94013 10.5497 0.31534 20.9983C-0.634536 27.0475 0.61535 32.7717 3.33999 37.4961L1.11526 45.77C0.615325 47.6448 2.34005 49.3446 4.18981 48.8196L12.3388 46.5699C16.0383 48.7446 20.3627 49.9945 24.9871 49.9945C39.0853 49.9945 50.7838 37.5711 49.9589 23.5229ZM37.2105 34.2965C36.9856 34.7465 36.7106 35.1714 36.3607 35.5714C35.7357 36.2463 35.0608 36.7462 34.3109 37.0462C33.561 37.3711 32.7361 37.5211 31.8612 37.5211C30.5864 37.5211 29.2116 37.2214 27.7868 36.5965C26.337 35.9715 24.9121 35.1464 23.4873 34.1215C22.0375 33.0717 20.6877 31.8968 19.3879 30.622C18.088 29.3222 16.9381 27.9473 15.8883 26.5225C14.8634 25.0977 14.0385 23.6729 13.4386 22.2481C12.8387 20.8233 12.5388 19.4486 12.5388 18.1488C12.5388 17.2988 12.6887 16.4739 12.9887 15.724C13.2887 14.9491 13.7637 14.2493 14.4386 13.6243C15.2385 12.8244 16.1133 12.4495 17.0382 12.4495C17.3881 12.4495 17.738 12.5245 18.063 12.6744C18.3879 12.8244 18.6879 13.0494 18.9129 13.3744L21.8126 17.4738C22.0375 17.7987 22.2125 18.0737 22.3125 18.3487C22.4375 18.6236 22.4875 18.8736 22.4875 19.1236C22.4875 19.4235 22.3875 19.7235 22.2125 20.0234C22.0375 20.3233 21.8126 20.6233 21.5126 20.9233L20.5627 21.9231C20.4127 22.0731 20.3627 22.2231 20.3627 22.4231C20.3627 22.5231 20.3877 22.623 20.4127 22.723C20.4627 22.823 20.4877 22.898 20.5127 22.973C20.7377 23.3979 21.1376 23.9229 21.6876 24.5728C22.2625 25.2227 22.8624 25.8976 23.5123 26.5475C24.1872 27.2224 24.8372 27.8224 25.5121 28.3973C26.162 28.9472 26.7119 29.3222 27.1369 29.5471C27.2118 29.5721 27.2868 29.6221 27.3618 29.6471C27.4618 29.6971 27.5618 29.6971 27.6868 29.6971C27.9118 29.6971 28.0617 29.6221 28.2117 29.4721L29.1616 28.5223C29.4866 28.1973 29.7865 27.9723 30.0615 27.8224C30.3614 27.6474 30.6364 27.5474 30.9614 27.5474C31.2113 27.5474 31.4613 27.5974 31.7363 27.7224C32.0112 27.8474 32.3112 27.9973 32.6111 28.2223L36.7606 31.1719C37.0856 31.3969 37.3105 31.6719 37.4605 31.9718C37.5855 32.2968 37.6605 32.5967 37.6605 32.9467C37.5105 33.3716 37.4105 33.8466 37.2105 34.2965Z" fill="white"/>
</svg>
