<svg width="27" height="27" viewBox="0 0 27 27" fill="none" xmlns="http://www.w3.org/2000/svg">
<g clip-path="url(#clip0_147_156)">
<path d="M27.054 18.6069C26.9545 18.7147 26.9786 18.841 26.9518 18.9483C26.754 19.7423 26.389 20.4258 25.6802 20.8807C25.5784 20.9461 25.5332 21.0227 25.5175 21.138C25.4872 21.3606 25.4493 21.5834 25.3525 21.7889C25.2392 22.0294 25.1129 22.2815 24.7986 22.2643C24.5005 22.2479 24.4491 21.9822 24.3814 21.7341C24.1985 21.97 24.0746 22.2727 23.7142 22.2117C23.4509 22.1672 23.423 21.9297 23.3577 21.7086C23.2031 21.8549 23.0843 22.0475 22.8478 22.0325C22.6961 22.0228 22.6125 21.9141 22.5494 21.7842C22.2357 22.3037 21.9045 22.8019 21.9137 23.4426C21.9173 23.6933 21.9673 23.8997 22.1417 24.0785C22.261 24.2007 22.382 24.3234 22.4842 24.4594C22.704 24.7521 22.6577 25.0153 22.3509 25.2174C22.0677 25.4039 21.7467 25.504 21.4136 25.5381C20.31 25.6513 19.2018 25.6351 18.098 25.568C17.3379 25.5218 16.7731 25.1003 16.3759 24.4538C16.1824 24.1387 16.0301 23.803 15.8767 23.4681C15.829 23.364 15.7806 23.3212 15.6563 23.3349C13.7537 23.544 11.8659 23.5167 10.0139 22.9592C9.99793 22.9544 9.97853 22.9609 9.95411 22.9626C9.88047 23.3142 9.87566 23.6739 9.84598 24.0312C9.83155 24.205 9.91662 24.3194 10.0345 24.4263C10.2223 24.5967 10.369 24.7961 10.2983 25.0638C10.2236 25.3465 9.97739 25.4486 9.7249 25.4917C8.45828 25.7084 7.22449 25.572 5.99745 25.192C5.02811 24.8918 4.44775 24.2919 4.26871 23.2979C4.25764 23.2365 4.25716 23.1706 4.1845 23.1245C4.08368 23.3796 3.97017 23.6291 3.6419 23.6367C3.36996 23.6431 3.2104 23.4776 2.92891 22.9117C2.83467 22.9443 2.81737 23.0442 2.76091 23.108C2.42291 23.49 1.98016 23.4371 1.76076 22.9792C1.63904 22.7252 1.58756 22.4509 1.56337 22.1718C1.5548 22.0729 1.5541 21.9803 1.4628 21.9074C0.600023 21.2184 0.286649 20.2615 0.158467 19.2156C0.140971 19.0728 0.124149 18.93 0.104339 18.7641C0.0631828 18.6471 0.0897011 18.5488 0.0817753 18.4285C0.0796862 18.0795 0.0860793 17.7547 0.066196 17.409C0.0539551 17.2777 0.0539551 17.1675 0.0539551 17.0336C0.179558 16.7287 0.153766 16.4208 0.204491 16.1265C0.407469 14.9486 0.7605 13.8227 1.32301 12.7657C1.37854 12.6614 1.44932 12.5767 1.3116 12.4669C1.20793 12.3842 1.2605 12.2484 1.28335 12.1349C1.47964 11.1605 1.83567 10.2398 2.22904 9.33174C3.11921 7.27681 4.59007 5.69554 6.32155 4.33076C7.64071 3.29098 9.09583 2.53015 10.7663 2.23185C10.8926 2.2093 10.9728 2.13655 11.0584 2.05545C12.0477 1.11816 13.2525 0.837998 14.57 0.918994C14.8531 0.936401 14.9894 1.12256 14.893 1.38211C14.8249 1.56556 14.9141 1.57493 15.0331 1.60912C15.2756 1.6788 15.5669 1.71889 15.7185 1.90423C16.0013 2.24981 16.4006 2.30714 16.7685 2.44417C19.1927 3.34722 21.0188 4.99784 22.5183 7.04961C23.3756 8.22273 24.0883 9.47531 24.5912 10.849C24.8158 11.4626 25.1725 12.0248 25.5024 12.5926C26.1704 13.7424 26.7246 14.9355 26.9173 16.2679C26.952 16.5079 26.982 16.7486 27.0341 16.9995C27.054 17.085 27.054 17.16 27.054 17.2575C26.9978 17.3743 27.0355 17.4761 27.0421 17.5892C27.054 17.6966 27.054 17.7891 27.054 17.9049C26.9983 18.0403 27.0362 18.159 27.0419 18.2904C27.054 18.3986 27.054 18.4911 27.054 18.6069Z" fill="#2A2B5E"/>
<path d="M0.0539551 17.4133C0.170798 17.7098 0.0717519 18.0434 0.103108 18.3949C0.0904161 18.4262 0.0819563 18.4321 0.0637258 18.426C0.0539551 18.0889 0.0539551 17.7637 0.0539551 17.4133Z" fill="#747595"/>
<path d="M27.054 18.2824C26.9561 18.1969 27.0012 18.0756 27.0391 17.9421C27.054 18.0382 27.054 18.1485 27.054 18.2824Z" fill="#494B75"/>
<path d="M27.054 17.5809C26.9693 17.512 26.993 17.4084 27.038 17.2921C27.054 17.3726 27.054 17.4651 27.054 17.5809Z" fill="#4C4E77"/>
<path d="M0.0539551 18.4371C0.0539551 18.414 0.0762167 18.4186 0.0875463 18.4194C0.102842 18.5121 0.106807 18.6039 0.106218 18.7184C0.101664 18.741 0.0778751 18.7384 0.0659151 18.7382C0.0539551 18.6454 0.0539551 18.5529 0.0539551 18.4371Z" fill="#B6B7C8"/>
<path d="M14.3209 1.97954C14.1596 2.01648 14.0084 2.03552 13.8568 2.04914C13.7265 2.06085 13.658 2.12558 13.6662 2.25842C13.6738 2.38049 13.7494 2.43095 13.8645 2.4305C13.9815 2.43005 14.099 2.43356 14.2153 2.42394C15.3267 2.33199 16.3509 2.64794 17.3393 3.10626C19.0198 3.88549 20.3835 5.05603 21.5338 6.49884C22.3553 7.52931 23.074 8.62151 23.6621 9.79939C23.9723 10.4206 24.212 11.0679 24.3246 11.7571C24.337 11.8334 24.3935 11.9268 24.3037 11.9757C24.2157 12.0236 24.1586 11.9314 24.102 11.8784C23.8177 11.6122 23.5762 11.3126 23.4053 10.9604C23.3419 10.8299 23.2716 10.7064 23.1621 10.6075C23.0686 10.5232 22.9726 10.5143 22.867 10.5796C22.7612 10.6451 22.7719 10.7472 22.7943 10.8439C22.808 10.9033 22.8432 10.9596 22.8767 11.0124C23.5144 12.0184 23.9198 13.1173 24.1667 14.2764C24.2146 14.5011 24.2674 14.7321 24.2423 14.9888C24.0592 14.9187 24.0419 14.7435 23.968 14.6146C23.9034 14.502 23.8531 14.3809 23.6867 14.4328C23.5276 14.4824 23.5137 14.6131 23.5452 14.7392C23.7004 15.3603 23.7546 15.9929 23.7922 16.6294C23.8257 17.196 23.8129 17.7621 23.8041 18.3283C23.8029 18.4099 23.8003 18.5399 23.7062 18.5553C23.6002 18.5727 23.5808 18.4432 23.5536 18.3644C23.4011 17.9226 23.2982 17.4682 23.2127 17.0088C23.1884 16.8787 23.1956 16.6827 22.9895 16.6996C22.7877 16.7162 22.7445 16.8882 22.7431 17.0602C22.7376 17.717 22.748 18.3742 22.7305 19.0306C22.7066 19.9289 22.4934 20.7877 22.1336 21.6099C22.107 21.6708 22.0968 21.7517 22.015 21.7766C21.9638 21.7468 21.9827 21.698 21.9801 21.6579C21.9712 21.5189 21.9246 21.3838 21.7671 21.4094C21.6129 21.4345 21.5225 21.5606 21.5553 21.7316C21.6517 22.235 21.5945 22.7316 21.5079 23.2294C21.4307 23.6725 21.5329 24.0554 21.8653 24.3859C22.2539 24.7723 22.3023 24.826 21.6775 25.0542C21.337 25.1785 20.9701 25.1982 20.6156 25.2048C19.8168 25.2197 19.0161 25.2676 18.2178 25.1725C17.5222 25.0897 17.0113 24.7402 16.6808 24.1265C16.5571 23.897 16.448 23.6596 16.3259 23.4293C16.255 23.2956 16.2505 23.2375 16.4361 23.2108C17.3338 23.0818 18.2177 22.8855 19.0889 22.6313C19.2347 22.5887 19.3613 22.534 19.3197 22.3653C19.2739 22.1791 19.1292 22.1926 18.9728 22.2381C17.843 22.5662 16.6988 22.8403 15.5254 22.9397C13.7094 23.0935 11.9 23.0972 10.1393 22.513C9.68404 22.362 9.6103 22.4182 9.55291 22.8873C9.50826 23.2522 9.46232 23.616 9.44794 23.9843C9.43766 24.2475 9.52236 24.4541 9.70972 24.6346C9.79523 24.717 9.95396 24.7887 9.90798 24.9279C9.85741 25.081 9.68122 25.0886 9.54149 25.1097C9.03293 25.1864 8.51828 25.2017 8.0089 25.158C7.19988 25.0885 6.41902 24.8896 5.67448 24.5539C5.1583 24.3212 4.90271 23.9065 4.80361 23.3494C5.35784 23.3381 5.46242 23.2311 5.45315 22.6665C5.45198 22.5952 5.45299 22.524 5.45299 22.4507C5.59086 22.4279 5.64733 22.5414 5.73503 22.594C5.91079 22.6993 6.09496 22.7219 6.27186 22.6148C6.44702 22.5086 6.46887 22.3424 6.4424 22.1449C6.41375 21.9312 6.39606 21.7175 6.32883 21.5109C6.29715 21.4135 6.29988 21.3176 6.36371 21.2279C6.52042 21.0077 6.66822 20.7818 6.75429 20.5227C6.79145 20.4108 6.88009 20.4097 6.97227 20.4097C7.17001 20.4095 7.36652 20.4085 7.56067 20.3555C7.98035 20.2409 8.07719 19.908 7.78173 19.5801C7.59209 19.3696 7.35449 19.2234 7.11068 19.088C6.9924 19.0223 6.91319 18.9512 6.91229 18.7994C6.90563 17.6712 6.6143 16.581 6.45933 15.4725C6.41962 15.1885 6.37473 14.9056 6.36881 14.6173C6.36014 14.1953 6.33801 13.7735 6.32583 13.3515C6.32145 13.1999 6.31516 13.0366 6.11989 13.0374C5.93942 13.0381 5.89354 13.1856 5.89284 13.3447C5.88917 14.1717 5.93806 14.9944 6.07269 15.8119C6.27363 17.0321 6.52958 18.2433 6.49098 19.4947C6.45938 20.5191 6.00299 21.2484 5.09073 21.6743C4.28979 22.0483 3.43837 22.1821 2.57207 21.9437C1.59896 21.6758 1.07637 20.9491 0.813985 20.0292C0.538257 19.0626 0.511118 18.0717 0.575493 17.0673C0.658883 15.7663 0.995552 14.5387 1.51575 13.356C1.84555 12.6061 2.29656 11.9391 2.98859 11.4679C3.10049 11.3917 3.17115 11.3126 3.09505 11.1824C3.02368 11.0604 2.91369 11.0531 2.79013 11.108C2.44167 11.2629 2.19822 11.5406 1.95565 11.8188C1.91021 11.8709 1.88279 11.9398 1.77972 11.9636C1.94739 11.2082 2.19914 10.5013 2.49277 9.80774C2.94374 8.74262 3.50055 7.74342 4.25717 6.85852C5.35886 5.57005 6.61778 4.47227 8.08558 3.61861C8.82914 3.18616 9.61873 2.8727 10.4592 2.68652C10.7592 2.62007 11.298 2.34341 11.5539 2.14081C12.2314 1.60467 13.0051 1.32329 13.8656 1.29191C14.0359 1.2857 14.213 1.17736 14.4028 1.30474C14.3068 1.40989 14.1862 1.43753 14.0715 1.4758C13.9444 1.51822 13.7977 1.5411 13.8218 1.73208C13.8438 1.90596 13.9919 1.89363 14.1078 1.92254C14.1583 1.93514 14.215 1.92322 14.2911 1.92007C14.3192 1.93157 14.325 1.94542 14.3209 1.97954Z" fill="white"/>
<path d="M23.9413 19.1306C24.2485 18.7572 24.2516 18.3305 24.2497 17.8964C24.2465 17.169 24.2329 16.4426 24.1484 15.7193C24.1359 15.6128 24.1542 15.5892 24.273 15.5957C24.5881 15.6129 24.7587 15.4145 24.7235 15.0827C24.6351 14.2496 24.4635 13.4347 24.1396 12.6591C24.0574 12.4623 24.0903 12.3938 24.304 12.4209C24.4154 12.4351 24.5332 12.4154 24.607 12.3359C24.7671 12.1635 24.827 12.2383 24.9227 12.4066C25.4204 13.2819 25.9308 14.1522 26.2183 15.1246C26.5882 16.3759 26.7904 17.6519 26.5024 18.9467C26.2553 20.0584 25.4593 20.8585 24.1871 20.9111C23.8143 20.9265 23.4563 20.9277 23.119 20.7417C22.9821 20.6662 22.921 20.5697 22.9599 20.4129C23.1048 19.8278 23.1479 19.23 23.1761 18.5821C23.3509 18.8587 23.4881 19.1376 23.8674 19.1101C23.9001 19.1353 23.9052 19.1619 23.9009 19.2092C23.7865 19.5088 23.8084 19.7937 23.8783 20.0757C23.9137 20.2186 23.99 20.3456 24.1511 20.3815C24.3262 20.4206 24.4429 20.3192 24.5432 20.1974C24.6915 20.0173 24.7361 19.7948 24.7804 19.5743C24.7928 19.5126 24.7919 19.4401 24.7108 19.4208C24.6346 19.4027 24.5961 19.4606 24.5688 19.5186C24.5151 19.6328 24.5017 19.7616 24.4454 19.875C24.4012 19.9642 24.3542 20.0684 24.2346 20.0495C24.118 20.0311 24.0964 19.9203 24.0789 19.8217C24.0435 19.622 24.1199 19.4031 23.9646 19.2053C23.9492 19.1759 23.9447 19.1633 23.9413 19.1306Z" fill="white"/>
<path d="M3.36093 22.766C3.32158 22.6651 3.24253 22.5611 3.33126 22.5018C3.45311 22.4203 3.61054 22.4573 3.75042 22.475C3.86398 22.4894 3.82484 22.5983 3.83453 22.673C3.83568 22.6819 3.83476 22.691 3.83469 22.6999C3.83325 22.8783 3.86314 23.1428 3.69401 23.1784C3.47999 23.2235 3.44377 22.9516 3.36093 22.766Z" fill="#5C4286"/>
<path d="M2.36047 22.8914C2.18746 22.8363 1.98063 22.4654 2.01891 22.3149C2.02434 22.2935 2.05246 22.2579 2.06106 22.2603C2.24005 22.3115 2.44718 22.3286 2.58623 22.4345C2.69499 22.5174 2.56347 22.6743 2.5017 22.7856C2.47782 22.8286 2.4221 22.854 2.36047 22.8914Z" fill="#5B4185"/>
<path d="M6.85899 19.725C6.84236 19.5231 6.90211 19.4655 7.0665 19.5703C7.10402 19.5943 7.1507 19.6075 7.18159 19.6375C7.27571 19.7291 7.51254 19.7759 7.41707 19.9303C7.33983 20.0552 7.1124 20.0621 6.94569 20.022C6.79655 19.9861 6.8799 19.8431 6.85899 19.725Z" fill="#B9B6BF"/>
<path d="M4.76298 22.719C4.72076 22.6598 4.69132 22.6153 4.66244 22.5703C4.61561 22.4975 4.5114 22.4038 4.57307 22.3421C4.6468 22.2682 4.77956 22.2487 4.89018 22.2181C4.94422 22.2032 4.95953 22.2563 4.96673 22.303C4.99741 22.502 5.05867 22.6992 5.00261 22.9101C4.88962 22.8927 4.8497 22.7908 4.76298 22.719Z" fill="#5A4184"/>
<path d="M5.63323 22.0201C5.54589 21.8018 5.73988 21.768 5.839 21.7275C5.95925 21.6784 5.93889 21.8391 5.97664 21.9083C5.99633 21.9444 5.99525 21.9958 5.99208 22.0394C5.98724 22.1061 6.02631 22.1932 5.94126 22.2308C5.85948 22.2671 5.81228 22.1933 5.76075 22.1469C5.72092 22.1111 5.68435 22.0716 5.63323 22.0201Z" fill="#B9B6BF"/>
<path d="M24.7349 21.4842C24.7398 21.409 24.731 21.3479 24.7546 21.3045C24.808 21.2067 24.9234 21.173 25.0087 21.2014C25.0985 21.2312 25.0591 21.3422 25.0348 21.4151C24.9903 21.5484 24.9658 21.694 24.8201 21.8173C24.7889 21.7019 24.7624 21.6041 24.7349 21.4842Z" fill="#594083"/>
<path d="M23.7604 21.4494C23.792 21.3001 23.8964 21.3113 23.9708 21.3459C24.0784 21.3959 24.0063 21.4846 23.9722 21.5483C23.9335 21.6208 23.9154 21.7587 23.8162 21.7292C23.7043 21.696 23.7788 21.5601 23.7604 21.4494Z" fill="#5B4185"/>
<path d="M23.0539 21.1685C23.1502 21.3379 23.0361 21.4178 22.9416 21.5204C22.8604 21.2152 22.8713 21.1773 23.0539 21.1685Z" fill="#5A4184"/>
<path d="M14.3354 2.00128C14.311 1.9862 14.3108 1.97258 14.312 1.93835C14.4994 1.85271 14.6759 1.8833 14.8482 2.00274C14.6854 2.00274 14.5226 2.00274 14.3354 2.00128Z" fill="#684990"/>
<path d="M23.8693 19.2267C23.8588 19.1887 23.866 19.1656 23.8815 19.1262C23.9016 19.1113 23.9135 19.1119 23.934 19.1111C23.9497 19.1197 23.957 19.1288 23.9699 19.1544C23.9806 19.2377 23.9391 19.2463 23.8693 19.2267Z" fill="#3A316B"/>
<path d="M4.8043 23.3294C4.79682 23.3214 4.79081 23.3119 4.78479 23.3025C4.79062 23.3047 4.79645 23.3068 4.80536 23.3171C4.80844 23.3252 4.80576 23.3281 4.8043 23.3294Z" fill="#8456A6"/>
<path d="M8.63406 11.3894C8.79329 11.6848 8.94466 11.9595 9.17974 12.1787C9.33597 12.3244 9.47197 12.3097 9.62743 12.1743C9.83787 11.991 9.90656 11.7407 9.98347 11.4917C10.0311 11.3374 10.0741 11.1816 10.1261 11.0289C10.1633 10.9198 10.2296 10.8453 10.3625 10.8476C10.4876 10.8498 10.5611 10.9091 10.6134 11.016C10.7279 11.2502 10.8337 11.4901 10.9664 11.7139C11.2335 12.1644 11.5591 12.1965 11.9172 11.8147C12.141 11.576 12.2823 11.2834 12.4329 10.9963C12.5081 10.8528 12.5566 10.6434 12.7726 10.6649C12.9697 10.6844 13.0222 10.8625 13.0844 11.0296C13.1874 11.3065 13.2815 11.5926 13.4747 11.8246C13.6572 12.0438 13.7828 12.0433 13.9942 11.8553C14.1804 11.6898 14.3023 11.483 14.4081 11.2624C14.4505 11.174 14.4941 11.082 14.5565 11.0081C14.7392 10.7917 14.9226 10.8274 15.0051 11.1005C15.0912 11.3855 15.1845 11.6671 15.3336 11.9247C15.5976 12.3811 15.9543 12.394 16.2694 11.9652C16.3867 11.8055 16.4926 11.6404 16.5577 11.4499C16.6074 11.3046 16.6616 11.1599 16.8664 11.1699C17.0708 11.1799 17.078 11.3407 17.1103 11.4731C17.1664 11.7028 17.2575 11.9167 17.3715 12.1212C17.6163 12.5603 17.991 12.5932 18.3181 12.206C18.4998 11.9911 18.6297 11.7453 18.7375 11.4868C18.772 11.404 18.8053 11.3203 18.8454 11.2402C18.9022 11.1269 18.9896 11.0583 19.125 11.0699C19.2512 11.0808 19.3098 11.1669 19.3546 11.2706C19.4329 11.4519 19.5107 11.6335 19.5917 11.8136C19.6248 11.8873 19.6579 11.9629 19.7039 12.0286C19.8441 12.2287 19.986 12.4488 20.2731 12.4119C20.5426 12.3773 20.6174 12.1407 20.6746 11.9243C20.7429 11.6653 20.7815 11.3983 20.83 11.1342C20.8523 11.0125 20.8777 10.8871 21.0396 10.917C21.1924 10.9452 21.2354 11.0586 21.204 11.2034C21.1229 11.579 21.0866 11.962 20.9453 12.3276C20.8123 12.6716 20.9622 13.021 21.0273 13.3585C21.1589 14.0417 21.1403 14.7189 20.9889 15.3889C20.834 16.0744 20.4336 16.5991 19.7947 16.9014C19.5429 17.0207 19.5389 17.145 19.6021 17.3808C19.8211 18.1982 19.9855 19.0214 19.7784 19.8749C19.659 20.3667 19.3778 20.7291 18.9834 21.022C18.2002 21.6036 17.3041 21.8599 16.3459 21.929C15.1734 22.0137 14.0987 21.7413 13.1713 20.9992C12.636 20.5708 12.2784 19.9947 11.9453 19.406C11.7283 19.0227 11.5202 18.6344 11.3095 18.2477C11.2475 18.134 11.1867 18.0364 11.0293 18.0364C9.81519 18.0366 9.13497 17.3014 8.66866 16.293C8.35613 15.6172 8.18032 14.8916 8.17803 14.1556C8.17531 13.2807 8.09198 12.3995 8.25653 11.5275C8.30719 11.259 8.38596 11.218 8.63406 11.3894Z" fill="#25275A"/>
<path d="M13.643 8.55171C13.1974 8.37517 12.8238 8.1359 12.5753 7.73797C12.3299 7.34482 12.4241 6.8753 12.796 6.59204C13.2618 6.23725 13.8011 6.16817 14.3569 6.22337C14.9538 6.28265 15.548 6.37641 16.1263 6.54432C16.5786 6.67569 17.0084 6.8522 17.3351 7.21393C17.6489 7.56136 17.619 7.94141 17.2304 8.20171C16.1072 8.95418 14.9089 9.01165 13.643 8.55171Z" fill="#27285C"/>
<path d="M9.05705 7.16228C9.62295 7.06715 10.1621 7.02065 10.6951 7.22861C11.1882 7.42103 11.3236 7.80674 11.04 8.25662C10.7706 8.68411 10.3446 8.89392 9.89605 9.06159C9.25871 9.29982 8.60479 9.42931 7.92256 9.28365C7.85271 9.26873 7.78341 9.24736 7.71691 9.22121C7.20999 9.02191 7.06535 8.57162 7.35397 8.11251C7.74389 7.49226 8.36972 7.29693 9.05705 7.16228Z" fill="#28285C"/>
<path d="M18.3143 6.06614C17.4324 6.4208 16.6056 6.22346 15.7944 5.89008C15.5196 5.77714 15.2728 5.60142 15.0865 5.36607C14.7325 4.91908 14.8757 4.4326 15.4015 4.21564C15.7508 4.07147 16.1007 4.10462 16.4599 4.15484C16.9974 4.23001 17.513 4.37279 18.0027 4.60567C18.1654 4.68304 18.3112 4.78732 18.4411 4.91456C18.8805 5.34491 18.8477 5.69924 18.3143 6.06614Z" fill="#28285C"/>
<path d="M10.5937 4.54554C11.1243 4.09308 11.7447 4.12181 12.3529 4.18031C12.8403 4.22719 13.3371 4.29057 13.7422 4.62602C14.0634 4.89204 14.0941 5.21319 13.8002 5.503C13.3448 5.9521 12.7501 6.0563 12.1537 6.15758C11.6007 6.25148 11.0752 6.19185 10.6104 5.86295C10.0982 5.50051 10.0917 4.92665 10.5937 4.54554Z" fill="#28285C"/>
<path d="M20.1035 7.38257C20.5942 7.77522 21.0006 8.21407 21.2623 8.77137C21.367 8.99421 21.4587 9.22444 21.2916 9.45969C21.1107 9.71442 20.8288 9.77821 20.5677 9.70664C19.5054 9.41541 18.6685 8.8199 18.2132 7.78415C18.0929 7.51051 18.0516 7.20158 18.2952 6.94962C18.5503 6.68574 18.8616 6.72384 19.1753 6.81299C19.531 6.91404 19.8111 7.1406 20.1035 7.38257Z" fill="#27285C"/>
<path d="M23.8323 19.221C23.8857 19.2074 23.9199 19.2031 23.9648 19.1848C24.1153 19.1964 24.1274 19.3066 24.1329 19.416C24.1388 19.5324 24.1328 19.6495 24.1396 19.7658C24.1452 19.8615 24.1379 19.9943 24.25 20.0103C24.3494 20.0246 24.369 19.8938 24.3989 19.8141C24.4394 19.7055 24.459 19.5891 24.4998 19.4806C24.5378 19.3793 24.5894 19.2661 24.7286 19.3116C24.8597 19.3546 24.8918 19.4542 24.8557 19.5917C24.7849 19.8609 24.73 20.1336 24.5156 20.3377C24.2903 20.5522 24.0074 20.5228 23.8739 20.2425C23.72 19.9193 23.7017 19.5757 23.8323 19.221Z" fill="#29285D"/>
<path d="M11.0146 17.0656C10.9456 16.9698 10.8924 16.8849 10.825 16.8135C10.7441 16.728 10.6457 16.6354 10.5243 16.7353C10.4055 16.8332 10.4202 16.9565 10.5185 17.0664C10.6673 17.2327 10.7992 17.4092 10.902 17.6274C10.2916 17.6175 9.84371 17.3456 9.4743 16.9055C9.37067 16.7821 9.43294 16.6836 9.4798 16.5854C9.77294 15.9709 10.2837 15.5849 10.9077 15.3905C12.3618 14.9374 13.7088 15.148 14.8893 16.159C15.0004 16.2541 15.102 16.2996 15.216 16.1809C15.332 16.0603 15.2459 15.9697 15.1607 15.8828C15.1166 15.8378 15.0722 15.793 15.0263 15.7499C14.7631 15.502 14.7674 15.4563 15.1074 15.2878C16.8243 14.4366 18.3822 15.3321 19.0445 16.893C19.3225 17.5483 19.4402 18.2492 19.4959 18.9608C19.5791 20.0227 19.0643 20.6969 18.1365 21.115C17.4729 21.414 16.7671 21.5886 16.0495 21.5828C14.482 21.5701 13.2438 20.9331 12.4582 19.5211C11.9997 18.6971 11.5786 17.8503 11.0146 17.0656Z" fill="#79519D"/>
<path d="M13.9907 6.59283C14.2561 6.61317 14.4981 6.62655 14.7381 6.65662C14.8627 6.67224 14.9399 6.71719 14.8244 6.86475C14.5209 7.25231 14.4428 7.69269 14.5957 8.15986C14.6558 8.3435 14.6038 8.40142 14.4332 8.36691C13.9083 8.26074 13.4048 8.10043 13.0193 7.70092C12.7065 7.37676 12.7461 7.07713 13.1216 6.83504C13.3788 6.6692 13.6693 6.61935 13.9907 6.59283Z" fill="#8255A4"/>
<path d="M9.10407 7.70489C8.92997 8.11391 9.08742 8.40208 9.39191 8.63468C9.50342 8.71986 9.53343 8.79672 9.37941 8.82724C8.93409 8.91548 8.48518 9.04325 8.02893 8.91158C7.54705 8.77251 7.48656 8.51193 7.82493 8.13252C8.14477 7.77389 8.58928 7.68749 9.02083 7.57276C9.10606 7.55009 9.1311 7.60723 9.10407 7.70489Z" fill="#8155A4"/>
<path d="M15.529 4.60311C16.012 4.47063 16.4667 4.52819 16.922 4.63518C16.9145 4.76484 16.8162 4.79749 16.7597 4.86088C16.5901 5.05136 16.4852 5.25899 16.5585 5.52158C16.6013 5.67499 16.5797 5.74731 16.3939 5.68947C16.0379 5.57867 15.7046 5.43139 15.4416 5.15791C15.2094 4.91638 15.2261 4.79491 15.529 4.60311Z" fill="#8054A3"/>
<path d="M11.8225 5.12995C11.8201 5.32171 11.8842 5.46667 11.9782 5.60324C12.0368 5.6884 12.0692 5.7709 11.9103 5.77896C11.5464 5.79741 11.1921 5.77908 10.8711 5.57244C10.5823 5.38648 10.5468 5.11831 10.7995 4.88686C11.1435 4.57184 11.5659 4.53509 12.0358 4.54438C11.946 4.74742 11.8004 4.8991 11.8225 5.12995Z" fill="#8055A3"/>
<path d="M19.6067 7.99008C19.4041 8.1539 19.345 8.3659 19.3174 8.62289C18.9599 8.3275 18.6656 8.01273 18.541 7.57656C18.4464 7.24523 18.5983 7.09727 18.9324 7.16536C19.288 7.23783 19.5637 7.45157 19.8393 7.66553C19.9681 7.76556 20.0462 7.86393 19.7939 7.90094C19.7348 7.90961 19.6808 7.95286 19.6067 7.99008Z" fill="#8054A3"/>
</g>
<defs>
<clipPath id="clip0_147_156">
<rect width="37" height="37" fill="white"/>
</clipPath>
</defs>
</svg>
