<svg width="110" height="110" viewBox="0 0 110 110" fill="none" xmlns="http://www.w3.org/2000/svg">

<path d="M110.22 75.8057C109.815 76.245 109.913 76.7596 109.804 77.1968C108.998 80.4318 107.511 83.2163 104.623 85.0697C104.209 85.3359 104.024 85.6482 103.96 86.118C103.837 87.0247 103.683 87.9323 103.288 88.7695C102.826 89.7495 102.312 90.7765 101.031 90.7063C99.8171 90.6396 99.6075 89.5573 99.3317 88.5466C98.5867 89.5076 98.0819 90.7406 96.6137 90.4923C95.541 90.3108 95.4271 89.3432 95.1612 88.4424C94.5313 89.0387 94.0471 89.8233 93.084 89.762C92.4658 89.7226 92.1253 89.2795 91.868 88.7504C90.59 90.8671 89.2406 92.8966 89.2781 95.5068C89.2927 96.5284 89.4966 97.3692 90.2072 98.0977C90.6929 98.5955 91.1861 99.0954 91.6024 99.6496C92.498 100.842 92.3092 101.914 91.0595 102.737C89.9056 103.498 88.5977 103.905 87.2409 104.044C82.7445 104.505 78.2297 104.439 73.7326 104.166C70.6361 103.978 68.3352 102.261 66.717 99.6266C65.9283 98.343 65.3081 96.975 64.6831 95.6107C64.4888 95.1866 64.2916 95.0123 63.7849 95.068C56.0336 95.9202 48.3429 95.8089 40.7976 93.5376C40.7325 93.518 40.6534 93.5446 40.5539 93.5516C40.2539 94.9839 40.2343 96.4493 40.1134 97.9049C40.0546 98.6128 40.4012 99.079 40.8814 99.5147C41.6466 100.209 42.2444 101.021 41.9562 102.112C41.6519 103.264 40.6488 103.679 39.6201 103.855C34.4598 104.738 29.4333 104.182 24.4342 102.634C20.485 101.411 18.1206 98.9672 17.3912 94.9174C17.3461 94.6672 17.3441 94.3988 17.0481 94.2111C16.6374 95.2502 16.1749 96.2666 14.8375 96.2978C13.7296 96.3237 13.0796 95.6494 11.9327 93.3439C11.5488 93.4769 11.4783 93.8839 11.2483 94.1438C9.87128 95.7002 8.06747 95.4844 7.17361 93.6191C6.67773 92.5843 6.46798 91.4665 6.36946 90.3297C6.33451 89.9265 6.33168 89.5493 5.95972 89.2522C2.44469 86.4453 1.16798 82.5468 0.645762 78.2858C0.574481 77.7042 0.505945 77.1223 0.425239 76.4463C0.257565 75.9698 0.365603 75.5693 0.333312 75.0793C0.324801 73.6573 0.350847 72.3342 0.269841 70.9256C0.219971 70.3908 0.219971 69.9417 0.219971 69.3963C0.731685 68.1539 0.626607 66.8997 0.833267 65.7005C1.66021 60.9019 3.09849 56.3148 5.39019 52.0085C5.61645 51.5834 5.9048 51.2385 5.34371 50.7911C4.92136 50.4542 5.13551 49.9008 5.22863 49.4385C6.02831 45.4686 7.4788 41.7178 9.08142 38.0182C12.7081 29.6463 18.7004 23.2041 25.7546 17.6439C31.129 13.4077 37.0572 10.3081 43.863 9.09277C44.3775 9.00089 44.7042 8.7045 45.0529 8.3741C49.0832 4.55553 53.9919 3.41411 59.3593 3.7441C60.5128 3.81501 61.0682 4.57342 60.6755 5.63087C60.3979 6.37824 60.7611 6.41644 61.246 6.55572C62.2341 6.83962 63.4207 7.00293 64.0386 7.75803C65.1906 9.16593 66.8175 9.39952 68.3161 9.95776C78.1925 13.6369 85.6324 20.3616 91.7414 28.7207C95.2343 33.5 98.1378 38.6032 100.186 44.1995C101.102 46.6995 102.555 48.99 103.899 51.3032C106.62 55.9877 108.878 60.8484 109.663 66.2765C109.805 67.2545 109.927 68.2352 110.139 69.2573C110.22 69.6056 110.22 69.9111 110.22 70.3083C109.991 70.7841 110.145 71.1989 110.172 71.6598C110.22 72.0972 110.22 72.4743 110.22 72.9457C109.993 73.4974 110.147 73.9813 110.171 74.5163C110.22 74.9572 110.22 75.3343 110.22 75.8057Z" fill="black"/>
<path d="M0.219971 70.943C0.695997 72.151 0.292476 73.5099 0.420224 74.9423C0.368516 75.0697 0.33405 75.0937 0.259778 75.0689C0.219971 73.6954 0.219971 72.3707 0.219971 70.943Z" fill="#747595"/>
<path d="M110.22 74.4838C109.821 74.1354 110.005 73.6414 110.16 73.0975C110.22 73.4892 110.22 73.9383 110.22 74.4838Z" fill="#494B75"/>
<path d="M110.22 71.6258C109.875 71.3452 109.971 70.923 110.155 70.4493C110.22 70.7772 110.22 71.1543 110.22 71.6258Z" fill="#4C4E77"/>
<path d="M0.219971 75.1143C0.219971 75.02 0.310666 75.0388 0.356824 75.0422C0.419138 75.4197 0.435295 75.7938 0.432896 76.26C0.41434 76.3521 0.317423 76.3418 0.268697 76.3409C0.219971 75.9629 0.219971 75.5857 0.219971 75.1143Z" fill="#B6B7C8"/>
<path d="M58.3447 8.06484C57.6875 8.21535 57.0716 8.2929 56.4537 8.34841C55.9229 8.3961 55.6439 8.65984 55.6774 9.20102C55.7083 9.69834 56.0162 9.90391 56.4853 9.9021C56.9618 9.90025 57.4405 9.91457 57.9144 9.87536C62.4421 9.50076 66.6151 10.7879 70.6419 12.6552C77.4882 15.8298 83.0439 20.5987 87.7304 26.4768C91.0775 30.675 94.0053 35.1247 96.4014 39.9235C97.6652 42.4545 98.6417 45.0914 99.1002 47.8994C99.151 48.2101 99.3809 48.5906 99.0151 48.7898C98.6567 48.985 98.4242 48.6095 98.1936 48.3936C97.0351 47.3092 96.0513 46.0884 95.3549 44.6534C95.097 44.122 94.8104 43.6188 94.3641 43.2159C93.9834 42.8723 93.5921 42.8361 93.1621 43.1021C92.7309 43.3689 92.7744 43.7848 92.8657 44.179C92.9218 44.421 93.0652 44.6504 93.2013 44.8652C95.7996 48.9637 97.4513 53.4408 98.4572 58.1632C98.6522 59.0785 98.8674 60.0198 98.7652 61.0654C98.019 60.7798 97.9487 60.066 97.6476 59.5409C97.3846 59.0821 97.1795 58.5889 96.5017 58.8003C95.8533 59.0025 95.7967 59.5349 95.925 60.0485C96.5576 62.5789 96.7782 65.1565 96.9315 67.7496C97.068 70.0576 97.0157 72.364 96.9799 74.671C96.9748 75.0032 96.9644 75.5328 96.5812 75.5958C96.1492 75.6667 96.07 75.1391 95.9592 74.8181C95.3381 73.0181 94.9189 71.1667 94.5702 69.2954C94.4714 68.765 94.5008 67.9667 93.6612 68.0356C92.839 68.1031 92.663 68.8039 92.6571 69.5046C92.6347 72.1804 92.6774 74.8578 92.6061 77.5321C92.5084 81.1919 91.64 84.6905 90.1743 88.0405C90.0657 88.2886 90.0242 88.618 89.6909 88.7197C89.4823 88.5982 89.5592 88.3993 89.5487 88.2358C89.5126 87.6696 89.3224 87.1192 88.6808 87.2235C88.0526 87.3257 87.6844 87.8396 87.8179 88.5363C88.2108 90.5869 87.9779 92.6103 87.6248 94.6383C87.3105 96.4434 87.7266 98.0035 89.081 99.3502C90.664 100.924 90.8615 101.143 88.3159 102.073C86.9286 102.579 85.4337 102.659 83.9898 102.686C80.7354 102.747 77.4733 102.942 74.2209 102.555C71.3871 102.217 69.3055 100.794 67.9588 98.2933C67.4551 97.3581 67.0106 96.3911 66.5129 95.4526C66.2242 94.908 66.2058 94.6713 66.9621 94.5626C70.6192 94.0369 74.2204 93.2372 77.7697 92.2015C78.3638 92.0281 78.8794 91.8052 78.7101 91.1178C78.5233 90.3594 77.934 90.4145 77.2968 90.5996C72.6937 91.9363 68.0324 93.0532 63.2517 93.4581C55.8533 94.0846 48.4818 94.0999 41.3084 91.7199C39.4537 91.1045 39.1533 91.3336 38.9194 93.2445C38.7375 94.7312 38.5504 96.2135 38.4918 97.714C38.4499 98.7861 38.795 99.628 39.5583 100.363C39.9067 100.699 40.5534 100.991 40.366 101.558C40.16 102.182 39.4422 102.213 38.8729 102.299C36.801 102.611 34.7043 102.674 32.629 102.496C29.333 102.213 26.1517 101.402 23.1184 100.034C21.0155 99.0863 19.9742 97.3968 19.5704 95.1272C21.8284 95.081 22.2545 94.6451 22.2167 92.345C22.2119 92.0547 22.2161 91.7643 22.2161 91.4658C22.7777 91.373 23.0078 91.8354 23.3651 92.0495C24.0812 92.4786 24.8315 92.5709 25.5522 92.1343C26.2658 91.7019 26.3548 91.0247 26.247 90.2201C26.1303 89.3493 26.0582 88.4789 25.7843 87.6369C25.6552 87.2402 25.6664 86.8494 25.9264 86.4841C26.5649 85.587 27.167 84.6666 27.5177 83.6109C27.6691 83.1551 28.0302 83.1507 28.4057 83.1505C29.2113 83.15 30.0119 83.1456 30.8029 82.9297C32.5127 82.4631 32.9072 81.1065 31.7035 79.7708C30.9309 78.9134 29.9629 78.3177 28.9696 77.766C28.4877 77.4984 28.165 77.2088 28.1614 76.5902C28.1342 71.9937 26.9473 67.5524 26.316 63.0361C26.1542 61.879 25.9713 60.7266 25.9472 59.5522C25.9118 57.8328 25.8217 56.1145 25.7721 54.3952C25.7542 53.7773 25.7286 53.1121 24.933 53.1153C24.1978 53.1183 24.0109 53.7191 24.008 54.3673C23.9931 57.7367 24.1923 61.0883 24.7408 64.4189C25.5594 69.3899 26.6022 74.3247 26.4449 79.4227C26.3162 83.5963 24.4568 86.5674 20.7402 88.3028C17.4771 89.8264 14.0083 90.3716 10.479 89.4001C6.51446 88.3089 4.38537 85.3483 3.31641 81.6006C2.19308 77.6623 2.08251 73.6256 2.34478 69.5336C2.68451 64.2331 4.05613 59.2319 6.17543 54.4132C7.51908 51.3582 9.35654 48.6407 12.1759 46.7212C12.6318 46.4108 12.9197 46.0883 12.6097 45.5581C12.3189 45.0608 11.8708 45.0313 11.3674 45.2551C9.9477 45.8861 8.95588 47.0173 7.96762 48.1506C7.7825 48.3628 7.67078 48.6435 7.25088 48.7405C7.93398 45.6633 8.95962 42.783 10.1559 39.9575C11.9932 35.6181 14.2617 31.5473 17.3442 27.9422C21.8326 22.6928 26.9615 18.2204 32.9414 14.7426C35.9708 12.9807 39.1876 11.7037 42.6119 10.9451C43.8339 10.6744 46.0289 9.5473 47.0718 8.72189C49.8316 6.53759 52.9841 5.39124 56.4898 5.2634C57.1834 5.23811 57.905 4.79671 58.6781 5.31565C58.287 5.74403 57.7959 5.85666 57.3286 6.01257C56.8106 6.18539 56.2131 6.2786 56.3114 7.05666C56.4009 7.76508 57.0042 7.71484 57.4765 7.83261C57.6823 7.88394 57.913 7.83538 58.223 7.82257C58.3375 7.86941 58.3613 7.92586 58.3447 8.06484Z" fill="#DDE6ED"/>
<path d="M97.5386 77.9397C98.7899 76.4182 98.8028 74.6798 98.795 72.9113C98.7819 69.9478 98.7265 66.9883 98.382 64.0418C98.3312 63.6078 98.4057 63.5114 98.89 63.5379C100.174 63.6081 100.869 62.7999 100.725 61.448C100.365 58.0541 99.666 54.734 98.3465 51.5741C98.0116 50.7722 98.1457 50.4932 99.0162 50.6038C99.4699 50.6614 99.9501 50.5811 100.251 50.2574C100.903 49.5552 101.147 49.8597 101.537 50.5454C103.564 54.1114 105.644 57.6573 106.815 61.619C108.322 66.7167 109.146 71.9151 107.973 77.1901C106.966 81.7193 103.723 84.9791 98.5398 85.1935C97.0211 85.2563 95.5627 85.2611 94.1885 84.5034C93.6305 84.1957 93.3818 83.8023 93.5401 83.1637C94.1307 80.78 94.3061 78.3446 94.4209 75.705C95.1331 76.8318 95.6922 77.9682 97.2376 77.8562C97.3706 77.9586 97.3913 78.0669 97.3739 78.2598C96.9077 79.4804 96.9972 80.6412 97.2819 81.7899C97.4261 82.3721 97.7371 82.8896 98.3934 83.0359C99.1067 83.195 99.5821 82.7819 99.9905 82.2859C100.595 81.5519 100.777 80.6456 100.957 79.7472C101.007 79.4958 101.004 79.2006 100.674 79.1219C100.363 79.0479 100.206 79.2839 100.095 79.5204C99.8763 79.9856 99.8215 80.5102 99.5923 80.9722C99.412 81.3357 99.2208 81.76 98.7332 81.6831C98.2584 81.6081 98.1703 81.1568 98.0991 80.755C97.9548 79.9415 98.2659 79.0498 97.6335 78.2439C97.5708 78.1242 97.5525 78.0728 97.5386 77.9397Z" fill="#DDE6ED"/>
<path d="M13.6924 92.7504C13.5321 92.3392 13.2101 91.9156 13.5716 91.6739C14.068 91.3419 14.7094 91.4928 15.2793 91.5649C15.7419 91.6235 15.5824 92.0671 15.6219 92.3716C15.6266 92.4076 15.6229 92.4447 15.6226 92.4812C15.6167 93.2081 15.7385 94.2854 15.0495 94.4306C14.1775 94.6144 14.0299 93.5066 13.6924 92.7504Z" fill="#DDE6ED"/>
<path d="M9.61669 93.2613C8.91183 93.0367 8.06921 91.5258 8.22514 90.9125C8.24728 90.8254 8.36184 90.6801 8.39689 90.6902C9.12608 90.8988 9.96995 90.9684 10.5364 91.3999C10.9796 91.7374 10.4437 92.377 10.1921 92.8303C10.0948 93.0056 9.86777 93.1088 9.61669 93.2613Z" fill="#DDE6ED"/>
<path d="M27.9443 80.3613C27.8765 79.5387 28.1199 79.3037 28.7896 79.731C28.9425 79.8285 29.1327 79.8823 29.2585 80.0048C29.642 80.3779 30.6068 80.5683 30.2179 81.1974C29.9032 81.7063 28.9767 81.7347 28.2975 81.5712C27.6899 81.4249 28.0294 80.8423 27.9443 80.3613Z" fill="#DDE6ED"/>
<path d="M19.4048 92.5587C19.2328 92.3178 19.1129 92.1363 18.9952 91.9532C18.8044 91.6564 18.3798 91.2749 18.6311 91.0231C18.9315 90.7222 19.4723 90.643 19.923 90.5183C20.1432 90.4575 20.2056 90.6738 20.2349 90.8639C20.3599 91.6746 20.6095 92.4781 20.3811 93.3375C19.9207 93.2666 19.7581 92.8515 19.4048 92.5587Z" fill="#DDE6ED"/>
<path d="M22.9502 89.7116C22.5944 88.8223 23.3847 88.6845 23.7885 88.5196C24.2784 88.3196 24.1955 88.974 24.3493 89.256C24.4295 89.4031 24.4251 89.6125 24.4122 89.7903C24.3925 90.0619 24.5517 90.4166 24.2051 90.5702C23.872 90.7178 23.6797 90.4171 23.4697 90.2282C23.3074 90.0823 23.1585 89.9216 22.9502 89.7116Z" fill="#DDE6ED"/>
<path d="M100.772 87.5281C100.792 87.222 100.756 86.9729 100.852 86.7961C101.07 86.3976 101.54 86.2604 101.887 86.376C102.253 86.4976 102.093 86.9495 101.994 87.2469C101.812 87.7897 101.713 88.3828 101.119 88.8855C100.992 88.4153 100.884 88.0166 100.772 87.5281Z" fill="#DDE6ED"/>
<path d="M96.8017 87.3865C96.9306 86.778 97.3557 86.824 97.659 86.9649C98.0973 87.1686 97.8038 87.5298 97.6649 87.7895C97.5071 88.0846 97.4332 88.6465 97.0293 88.5265C96.5733 88.3911 96.8768 87.8374 96.8017 87.3865Z" fill="#DDE6ED"/>
<path d="M93.9232 86.2419C94.3154 86.9322 93.8504 87.2577 93.4657 87.6755C93.1347 86.4322 93.1792 86.2779 93.9232 86.2419Z" fill="#DDE6ED"/>
<path d="M58.4034 8.15336C58.3037 8.09192 58.3031 8.03647 58.3081 7.89699C59.0716 7.54808 59.7903 7.67273 60.4924 8.15935C59.8292 8.15935 59.1659 8.15935 58.4034 8.15336Z" fill="#684990"/>
<path d="M97.2453 78.3311C97.2025 78.176 97.2318 78.0822 97.2948 77.9213C97.3768 77.8609 97.4252 77.8635 97.5085 77.86C97.5728 77.895 97.6024 77.9321 97.6552 78.0364C97.6987 78.3757 97.5294 78.4107 97.2453 78.3311Z" fill="#3A316B"/>
<path d="M19.5736 95.0468C19.5429 95.0136 19.5181 94.9749 19.4934 94.9362C19.5174 94.945 19.5413 94.9538 19.578 94.996C19.5906 95.0293 19.5796 95.0414 19.5736 95.0468Z" fill="#8456A6"/>
<path d="M35.176 46.401C35.8247 47.6046 36.4414 48.7239 37.3992 49.6169C38.0356 50.2104 38.5897 50.1505 39.2231 49.5989C40.0804 48.8522 40.3603 47.8326 40.6736 46.818C40.8677 46.1895 41.043 45.5548 41.2549 44.9326C41.4062 44.488 41.6766 44.1846 42.2176 44.1941C42.7274 44.203 43.027 44.4445 43.2399 44.8799C43.7066 45.8343 44.1376 46.8116 44.6781 47.7234C45.7662 49.5587 47.0927 49.6892 48.5517 48.1338C49.4637 47.1615 50.0394 45.9695 50.6526 44.7997C50.959 44.2152 51.1565 43.362 52.0369 43.4494C52.8397 43.529 53.0538 44.2544 53.3071 44.9355C53.7266 46.0636 54.11 47.2289 54.897 48.1741C55.6408 49.0675 56.1522 49.0651 57.0136 48.2993C57.7721 47.6251 58.2687 46.7826 58.6998 45.8838C58.8725 45.5235 59.0502 45.1489 59.3046 44.8476C60.0489 43.966 60.7959 44.1116 61.1321 45.2243C61.4828 46.3852 61.8632 47.5327 62.4703 48.5821C63.546 50.4416 64.9993 50.4939 66.2828 48.7469C66.7607 48.0965 67.1924 47.4236 67.4576 46.6475C67.6598 46.0559 67.8806 45.4663 68.7151 45.5071C69.5479 45.5477 69.5771 46.2027 69.7088 46.7424C69.9372 47.6782 70.3087 48.5494 70.773 49.3825C71.7703 51.1716 73.297 51.3056 74.6297 49.7282C75.3696 48.8524 75.899 47.8512 76.338 46.7981C76.4787 46.4606 76.6143 46.1198 76.7779 45.7934C77.0092 45.3317 77.3651 45.0522 77.9168 45.0997C78.431 45.144 78.6697 45.4949 78.8522 45.9172C79.1715 46.6558 79.4884 47.3955 79.8181 48.1295C79.953 48.4299 80.088 48.7378 80.2755 49.0055C80.8465 49.8207 81.4245 50.7174 82.5944 50.5671C83.6922 50.426 83.9971 49.4623 84.2299 48.5806C84.5085 47.5253 84.6658 46.4375 84.863 45.3615C84.9539 44.8656 85.0575 44.3546 85.717 44.4766C86.3397 44.5916 86.5146 45.0534 86.3871 45.6436C86.0563 47.1738 85.9084 48.7342 85.3328 50.2235C84.791 51.625 85.4018 53.0486 85.6668 54.4237C86.2033 57.207 86.1274 59.9657 85.5106 62.6954C84.8795 65.4884 83.2483 67.6258 80.6454 68.8577C79.6193 69.3434 79.6031 69.8501 79.8605 70.8105C80.7529 74.1406 81.4228 77.4945 80.5789 80.9716C80.0926 82.9755 78.9469 84.4517 77.34 85.645C74.1491 88.0147 70.4984 89.0587 66.5948 89.3405C61.8179 89.6854 57.4396 88.5756 53.6611 85.5521C51.4803 83.807 50.0235 81.4598 48.6661 79.0614C47.7823 77.4999 46.9343 75.918 46.0758 74.3423C45.8236 73.8794 45.5756 73.4817 44.9346 73.4818C39.988 73.4824 37.2168 70.4871 35.317 66.379C34.0437 63.6257 33.3274 60.6694 33.3181 57.6707C33.307 54.1066 32.9675 50.5164 33.6379 46.9639C33.8443 45.8701 34.1652 45.7027 35.176 46.401Z" fill="black"/>
<path d="M55.5826 34.8403C53.767 34.1211 52.2451 33.1463 51.2328 31.5251C50.2327 29.9234 50.6165 28.0105 52.1316 26.8565C54.0293 25.411 56.2268 25.1296 58.491 25.3545C60.9228 25.596 63.3437 25.978 65.6995 26.6621C67.5426 27.1973 69.2936 27.9164 70.6246 29.3901C71.903 30.8056 71.7811 32.3539 70.198 33.4144C65.6218 36.48 60.7399 36.7142 55.5826 34.8403Z" fill="black"/>
<path d="M36.8989 29.1797C39.2044 28.7921 41.401 28.6027 43.5725 29.4499C45.5816 30.2338 46.133 31.8053 44.9778 33.6381C43.88 35.3797 42.1447 36.2345 40.3171 36.9176C37.7205 37.8882 35.0564 38.4157 32.2769 37.8223C31.9924 37.7615 31.71 37.6745 31.4391 37.5679C29.3739 36.7559 28.7846 34.9215 29.9604 33.051C31.549 30.524 34.0987 29.7282 36.8989 29.1797Z" fill="black"/>
<path d="M74.6136 24.7139C71.0207 26.1588 67.6522 25.3548 64.3474 23.9966C63.2279 23.5365 62.2224 22.8206 61.4632 21.8617C60.0213 20.0407 60.6046 18.0587 62.7466 17.1748C64.1698 16.5875 65.5954 16.7225 67.0586 16.9271C69.2485 17.2333 71.3491 17.8151 73.3443 18.7638C74.0071 19.079 74.6009 19.5039 75.1301 20.0222C76.9202 21.7755 76.7866 23.2191 74.6136 24.7139Z" fill="black"/>
<path d="M43.1594 18.5189C45.3211 16.6755 47.8486 16.7926 50.3268 17.0309C52.3126 17.2219 54.3363 17.4801 55.9866 18.8468C57.2954 19.9305 57.4205 21.2389 56.2231 22.4196C54.3676 24.2493 51.9451 24.6738 49.5149 25.0864C47.262 25.469 45.1212 25.2261 43.2276 23.8861C41.1408 22.4095 41.1145 20.0715 43.1594 18.5189Z" fill="black"/>
<path d="M81.9031 30.0771C83.9021 31.6768 85.5579 33.4647 86.6243 35.7352C87.0507 36.643 87.4245 37.581 86.7437 38.5394C86.0064 39.5772 84.8581 39.8371 83.7945 39.5455C79.4666 38.359 76.0568 35.9329 74.2018 31.7132C73.7117 30.5983 73.5437 29.3397 74.5361 28.3132C75.5755 27.2381 76.8434 27.3934 78.1218 27.7566C79.5707 28.1683 80.7118 29.0913 81.9031 30.0771Z" fill="black"/>
<path d="M97.0946 78.3078C97.3122 78.2522 97.4513 78.2347 97.6343 78.1604C98.2476 78.2076 98.2967 78.6563 98.3192 79.1023C98.343 79.5766 98.3186 80.0535 98.3463 80.5275C98.3691 80.9172 98.3395 81.4583 98.7961 81.5236C99.2011 81.5816 99.2811 81.049 99.4026 80.7241C99.568 80.2818 99.6477 79.8075 99.8137 79.3655C99.9688 78.9526 100.179 78.4913 100.746 78.677C101.28 78.8521 101.411 79.2579 101.264 79.818C100.975 80.9149 100.752 82.0257 99.8784 82.8573C98.9604 83.7314 97.808 83.6116 97.2641 82.4696C96.6369 81.1529 96.5623 79.7527 97.0946 78.3078Z" fill="black"/>
<path d="M44.8746 69.5266C44.5933 69.1363 44.3768 68.7903 44.1018 68.4996C43.7723 68.1512 43.3713 67.7738 42.8768 68.181C42.3927 68.5796 42.4529 69.082 42.8533 69.5297C43.4596 70.2074 43.997 70.9266 44.4158 71.8152C41.929 71.7752 40.1041 70.6672 38.5991 68.8743C38.1769 68.3714 38.4306 67.9703 38.6215 67.5701C39.8158 65.0667 41.8965 63.4941 44.439 62.7019C50.3631 60.8561 55.8509 61.714 60.6603 65.8331C61.1127 66.2206 61.5266 66.4059 61.9914 65.9224C62.4638 65.4309 62.1131 65.0616 61.7658 64.7076C61.5861 64.5244 61.4053 64.342 61.2186 64.1661C60.1461 63.1564 60.1635 62.9702 61.5486 62.2835C68.5434 58.8158 74.8906 62.4643 77.5887 68.8232C78.7214 71.493 79.2009 74.3487 79.428 77.2477C79.767 81.5741 77.6696 84.3208 73.8896 86.0241C71.1862 87.2424 68.3107 87.9536 65.387 87.93C59.0009 87.8782 53.9564 85.283 50.7556 79.5303C48.8878 76.1734 47.1721 72.7236 44.8746 69.5266Z" fill="#878787"/>
<path d="M56.999 26.8597C58.0802 26.9425 59.0663 26.997 60.0439 27.1196C60.5517 27.1832 60.8662 27.3663 60.3955 27.9675C59.159 29.5464 58.841 31.3406 59.4637 33.2438C59.7086 33.992 59.4969 34.228 58.802 34.0874C56.6635 33.6549 54.612 33.0017 53.0414 31.3741C51.767 30.0535 51.9282 28.8327 53.4582 27.8464C54.5063 27.1708 55.6897 26.9677 56.999 26.8597Z" fill="white"/>
<path d="M37.0908 31.3903C36.3815 33.0567 37.023 34.2307 38.2635 35.1783C38.7178 35.5253 38.8401 35.8385 38.2126 35.9628C36.3983 36.3223 34.5694 36.8429 32.7106 36.3064C30.7474 35.7399 30.501 34.6782 31.8795 33.1325C33.1825 31.6714 34.9935 31.3194 36.7517 30.852C37.0989 30.7596 37.2009 30.9924 37.0908 31.3903Z" fill="white"/>
<path d="M63.2666 18.7534C65.2343 18.2136 67.0865 18.4482 68.9418 18.8841C68.9111 19.4123 68.5106 19.5453 68.2805 19.8035C67.5893 20.5796 67.1619 21.4255 67.4605 22.4953C67.635 23.1203 67.5471 23.4149 66.79 23.1793C65.3396 22.7279 63.9818 22.1279 62.9104 21.0137C61.9642 20.0296 62.0323 19.5348 63.2666 18.7534Z" fill="white"/>
<path d="M48.1654 20.8999C48.1559 21.6811 48.4169 22.2717 48.8 22.8281C49.0388 23.175 49.1708 23.5111 48.5234 23.5439C47.0406 23.6191 45.5974 23.5444 44.2896 22.7026C43.1127 21.945 42.9683 20.8524 43.9979 19.9095C45.3992 18.6261 47.12 18.4764 49.0345 18.5142C48.6687 19.3414 48.0753 19.9593 48.1654 20.8999Z" fill="white"/>
<path d="M79.8794 32.5522C79.0541 33.2196 78.8131 34.0833 78.7006 35.1303C77.2444 33.9269 76.0454 32.6445 75.5378 30.8675C75.1521 29.5176 75.7712 28.9148 77.1322 29.1922C78.5808 29.4875 79.704 30.3583 80.8268 31.23C81.3518 31.6375 81.6701 32.0382 80.642 32.189C80.4013 32.2243 80.1813 32.4005 79.8794 32.5522Z" fill="white"/>

</svg>
