<svg width="195" height="40" viewBox="0 0 195 40" fill="none" xmlns="http://www.w3.org/2000/svg">
<path d="M48.92 14.14C48.3733 14.14 47.8667 14.28 47.4 14.56C46.9333 14.8267 46.5333 15.2133 46.2 15.72C45.8667 16.2267 45.6067 16.8333 45.42 17.54C45.2333 18.2467 45.14 19.0333 45.14 19.9C45.14 20.7933 45.2333 21.5933 45.42 22.3C45.6067 23.0067 45.8667 23.6133 46.2 24.12C46.5467 24.6133 46.9733 24.9933 47.48 25.26C47.9867 25.5267 48.56 25.66 49.2 25.66C49.88 25.66 50.48 25.4933 51 25.16C51.5333 24.8133 51.9733 24.3467 52.32 23.76C52.68 23.1733 52.94 22.5067 53.1 21.76L54.5 22.3C54.2867 23.26 53.9333 24.1133 53.44 24.86C52.96 25.5933 52.3333 26.1667 51.56 26.58C50.7867 26.9933 49.8733 27.2 48.82 27.2C47.7933 27.2 46.8467 27.0267 45.98 26.68C45.1267 26.32 44.3867 25.82 43.76 25.18C43.1333 24.5267 42.6467 23.7533 42.3 22.86C41.9533 21.9667 41.78 20.98 41.78 19.9C41.78 18.82 41.96 17.8333 42.32 16.94C42.68 16.0467 43.1733 15.28 43.8 14.64C44.4267 13.9867 45.1467 13.4867 45.96 13.14C46.7867 12.78 47.66 12.6 48.58 12.6C49.5133 12.6 50.2933 12.7533 50.92 13.06C51.5467 13.3667 52.0533 13.7933 52.44 14.34C52.84 14.8867 53.1467 15.52 53.36 16.24L52.4 16.12L52.76 12.8H54.26V17.22H52.54C52.34 16.6067 52.08 16.0733 51.76 15.62C51.44 15.1533 51.0467 14.7933 50.58 14.54C50.1267 14.2733 49.5733 14.14 48.92 14.14ZM63.6569 16.72V19.4C63.5502 19.36 63.4302 19.3333 63.2969 19.32C63.1769 19.2933 63.0435 19.2733 62.8969 19.26C62.7635 19.2467 62.6302 19.24 62.4969 19.24C62.1635 19.24 61.8635 19.28 61.5969 19.36C61.3435 19.4267 61.1035 19.5333 60.8769 19.68C60.6635 19.8267 60.4702 20.0267 60.2969 20.28C60.1235 20.52 59.9569 20.82 59.7969 21.18V19.92C59.9835 19.28 60.2102 18.7133 60.4769 18.22C60.7435 17.7267 61.0769 17.34 61.4769 17.06C61.8769 16.78 62.3569 16.64 62.9169 16.64C63.0769 16.64 63.2235 16.6467 63.3569 16.66C63.4902 16.6733 63.5902 16.6933 63.6569 16.72ZM55.8769 27V25.86H55.9169C56.2769 25.86 56.5702 25.82 56.7969 25.74C57.0369 25.6467 57.1569 25.4733 57.1569 25.22V18.78C57.1569 18.6067 57.1169 18.48 57.0369 18.4C56.9702 18.32 56.8502 18.2533 56.6769 18.2C56.5169 18.1333 56.3102 18.0733 56.0569 18.02L55.8769 17.98V16.8H59.9769V19.94L60.1969 19.7V25.36C60.1969 25.5067 60.2769 25.62 60.4369 25.7C60.5969 25.7667 60.7902 25.8133 61.0169 25.84C61.2435 25.8533 61.4369 25.86 61.5969 25.86H61.8169V27H55.8769ZM67.4255 15.12C66.9055 15.12 66.4855 14.9867 66.1655 14.72C65.8588 14.4533 65.7055 14.0867 65.7055 13.62C65.7055 13.1533 65.8588 12.7867 66.1655 12.52C66.4855 12.2533 66.9055 12.12 67.4255 12.12C67.9455 12.12 68.3588 12.2533 68.6655 12.52C68.9855 12.7867 69.1455 13.1533 69.1455 13.62C69.1455 14.0867 68.9855 14.4533 68.6655 14.72C68.3588 14.9867 67.9455 15.12 67.4255 15.12ZM69.0055 16.8V25.22C69.0055 25.4733 69.1255 25.6467 69.3655 25.74C69.6055 25.82 69.9055 25.86 70.2655 25.86H70.2855V27H64.7055V25.86H64.7255C65.0855 25.86 65.3855 25.82 65.6255 25.74C65.8655 25.6467 65.9855 25.4733 65.9855 25.22V18.78C65.9855 18.54 65.8921 18.3733 65.7055 18.28C65.5321 18.1867 65.2588 18.1 64.8855 18.02L64.6855 17.98V16.8H69.0055ZM77.5066 24.46C77.5066 24.22 77.4399 24.02 77.3066 23.86C77.1732 23.7 76.9932 23.5667 76.7666 23.46C76.5399 23.3533 76.2799 23.26 75.9866 23.18C75.6932 23.1 75.3866 23.02 75.0666 22.94C74.6532 22.8333 74.2399 22.7133 73.8266 22.58C73.4266 22.4467 73.0532 22.2667 72.7066 22.04C72.3732 21.8 72.0999 21.5 71.8866 21.14C71.6866 20.7667 71.5866 20.3 71.5866 19.74C71.5866 19.0733 71.7599 18.5 72.1066 18.02C72.4532 17.54 72.9466 17.18 73.5866 16.94C74.2266 16.6867 74.9799 16.56 75.8466 16.56C76.5399 16.56 77.1399 16.6133 77.6466 16.72C78.1666 16.8267 78.5866 16.9533 78.9066 17.1C79.2266 17.2467 79.4599 17.3733 79.6066 17.48V19.6H77.3466V17.82C77.5332 17.82 77.6799 17.8467 77.7866 17.9C77.8932 17.9533 77.9599 18.0267 77.9866 18.12C78.0266 18.2133 78.0399 18.32 78.0266 18.44C78.0132 18.5467 77.9799 18.66 77.9266 18.78C77.7799 18.5933 77.5999 18.44 77.3866 18.32C77.1866 18.1867 76.9532 18.0933 76.6866 18.04C76.4332 17.9733 76.1532 17.94 75.8466 17.94C75.2866 17.94 74.8666 18.0533 74.5866 18.28C74.3066 18.4933 74.1666 18.7867 74.1666 19.16C74.1666 19.4133 74.2332 19.62 74.3666 19.78C74.5132 19.94 74.7066 20.08 74.9466 20.2C75.1866 20.3067 75.4599 20.4067 75.7666 20.5C76.0732 20.58 76.3932 20.66 76.7266 20.74C77.1399 20.8467 77.5532 20.9733 77.9666 21.12C78.3932 21.2533 78.7732 21.44 79.1066 21.68C79.4532 21.9067 79.7266 22.2 79.9266 22.56C80.1399 22.9067 80.2466 23.3467 80.2466 23.88C80.2466 24.56 80.0666 25.1533 79.7066 25.66C79.3466 26.1533 78.8199 26.5333 78.1266 26.8C77.4466 27.0667 76.6066 27.2 75.6066 27.2C74.9132 27.2 74.2799 27.1467 73.7066 27.04C73.1466 26.9333 72.6599 26.8 72.2466 26.64C71.8466 26.4667 71.5132 26.3 71.2466 26.14V23.84H73.5266V26.22C73.2999 26.1 73.1199 25.9733 72.9866 25.84C72.8666 25.7067 72.7866 25.5733 72.7466 25.44C72.7199 25.3067 72.7199 25.1867 72.7466 25.08C72.7866 24.96 72.8532 24.8733 72.9466 24.82C73.1599 25.06 73.3932 25.2533 73.6466 25.4C73.9132 25.5333 74.2066 25.64 74.5266 25.72C74.8599 25.7867 75.2199 25.82 75.6066 25.82C75.9932 25.82 76.3266 25.7667 76.6066 25.66C76.8866 25.5533 77.1066 25.4 77.2666 25.2C77.4266 25 77.5066 24.7533 77.5066 24.46ZM80.8266 18.16V16.9H80.9066C81.2266 16.9 81.5066 16.8733 81.7466 16.82C81.9866 16.7667 82.1666 16.68 82.2866 16.56C82.4199 16.4267 82.4866 16.24 82.4866 16L84.3466 16.8H88.1266V18.16H80.8266ZM85.3866 23.44C85.3866 23.9867 85.4466 24.4267 85.5666 24.76C85.6999 25.08 85.8799 25.3133 86.1066 25.46C86.3466 25.5933 86.6332 25.66 86.9666 25.66C87.2332 25.66 87.4799 25.6333 87.7066 25.58C87.9466 25.5133 88.1332 25.4667 88.2666 25.44V26.86C88.1599 26.9133 88.0066 26.9667 87.8066 27.02C87.6066 27.0733 87.3799 27.1133 87.1266 27.14C86.8732 27.18 86.5932 27.2 86.2866 27.2C85.5666 27.2 84.9066 27.0933 84.3066 26.88C83.7199 26.6533 83.2466 26.2733 82.8866 25.74C82.5266 25.1933 82.3466 24.4533 82.3466 23.52V17.16L82.4866 17.02V14H85.3866V23.44ZM91.9372 15.12C91.4172 15.12 90.9972 14.9867 90.6772 14.72C90.3705 14.4533 90.2172 14.0867 90.2172 13.62C90.2172 13.1533 90.3705 12.7867 90.6772 12.52C90.9972 12.2533 91.4172 12.12 91.9372 12.12C92.4572 12.12 92.8705 12.2533 93.1772 12.52C93.4972 12.7867 93.6572 13.1533 93.6572 13.62C93.6572 14.0867 93.4972 14.4533 93.1772 14.72C92.8705 14.9867 92.4572 15.12 91.9372 15.12ZM93.5172 16.8V25.22C93.5172 25.4733 93.6372 25.6467 93.8772 25.74C94.1172 25.82 94.4172 25.86 94.7772 25.86H94.7972V27H89.2172V25.86H89.2372C89.5972 25.86 89.8972 25.82 90.1372 25.74C90.3772 25.6467 90.4972 25.4733 90.4972 25.22V18.78C90.4972 18.54 90.4039 18.3733 90.2172 18.28C90.0439 18.1867 89.7705 18.1 89.3972 18.02L89.1972 17.98V16.8H93.5172ZM102.64 20.84V22C102.106 22.0667 101.633 22.1467 101.22 22.24C100.82 22.3333 100.466 22.4533 100.16 22.6C99.853 22.7333 99.6064 22.8867 99.4197 23.06C99.233 23.2333 99.0864 23.4333 98.9797 23.66C98.8864 23.8867 98.8397 24.1333 98.8397 24.4C98.8397 24.6933 98.893 24.9467 98.9997 25.16C99.1197 25.3733 99.2864 25.54 99.4997 25.66C99.713 25.7667 99.9664 25.82 100.26 25.82C100.62 25.82 100.94 25.7267 101.22 25.54C101.513 25.34 101.773 25.0733 102 24.74C102.24 24.3933 102.44 23.98 102.6 23.5V24.98C102.413 25.4467 102.16 25.8467 101.84 26.18C101.52 26.5133 101.14 26.7667 100.7 26.94C100.273 27.1133 99.7864 27.2 99.2397 27.2C98.5864 27.2 98.013 27.1 97.5197 26.9C97.0264 26.6867 96.6397 26.38 96.3597 25.98C96.093 25.5667 95.9597 25.0733 95.9597 24.5C95.9597 23.94 96.0997 23.46 96.3797 23.06C96.6597 22.66 97.0797 22.32 97.6397 22.04C98.1997 21.7467 98.893 21.5067 99.7197 21.32C100.56 21.12 101.533 20.96 102.64 20.84ZM102.38 27V24.96H102.16V19.78C102.16 19.34 102.093 18.9933 101.96 18.74C101.84 18.4733 101.66 18.2867 101.42 18.18C101.18 18.0733 100.88 18.02 100.52 18.02C99.9864 18.02 99.5464 18.1333 99.1997 18.36C98.853 18.5867 98.5797 18.86 98.3797 19.18C98.2997 19.0467 98.2597 18.92 98.2597 18.8C98.2597 18.6667 98.293 18.5467 98.3597 18.44C98.4264 18.32 98.5197 18.22 98.6397 18.14C98.773 18.0467 98.9264 17.9867 99.0997 17.96V20.02H96.6197V17.88C96.8197 17.7333 97.1064 17.56 97.4797 17.36C97.853 17.1467 98.3197 16.9667 98.8797 16.82C99.453 16.6733 100.1 16.6 100.82 16.6C101.433 16.6 101.993 16.66 102.5 16.78C103.02 16.9 103.473 17.1 103.86 17.38C104.26 17.6467 104.566 18 104.78 18.44C105.006 18.8667 105.12 19.3933 105.12 20.02V25.16C105.12 25.32 105.166 25.4467 105.26 25.54C105.366 25.62 105.506 25.68 105.68 25.72C105.866 25.76 106.08 25.7867 106.32 25.8L106.38 25.82V27H102.38ZM107.205 27V25.86H107.245C107.485 25.86 107.698 25.84 107.885 25.8C108.072 25.76 108.218 25.6933 108.325 25.6C108.432 25.5067 108.485 25.38 108.485 25.22V18.78C108.485 18.6067 108.445 18.48 108.365 18.4C108.298 18.32 108.178 18.2533 108.005 18.2C107.845 18.1333 107.638 18.0733 107.385 18.02L107.205 17.98V16.8H111.305V18.98L111.525 19.06V25.66C111.525 25.7 111.585 25.74 111.705 25.78C111.825 25.8067 111.965 25.8267 112.125 25.84C112.298 25.8533 112.458 25.86 112.605 25.86H112.665V27H107.205ZM119.505 27H114.045V25.86H114.085C114.232 25.86 114.392 25.8533 114.565 25.84C114.738 25.8267 114.885 25.8067 115.005 25.78C115.125 25.74 115.185 25.7 115.185 25.66V20.04C115.185 19.64 115.138 19.32 115.045 19.08C114.965 18.84 114.832 18.66 114.645 18.54C114.458 18.4067 114.205 18.34 113.885 18.34C113.525 18.34 113.185 18.4333 112.865 18.62C112.545 18.7933 112.238 19.0533 111.945 19.4C111.665 19.7467 111.392 20.1867 111.125 20.72V18.96C111.418 18.4533 111.745 18.0267 112.105 17.68C112.478 17.32 112.898 17.0533 113.365 16.88C113.832 16.6933 114.338 16.6 114.885 16.6C115.565 16.6 116.152 16.7267 116.645 16.98C117.138 17.22 117.525 17.5867 117.805 18.08C118.085 18.5733 118.225 19.2067 118.225 19.98V25.22C118.225 25.38 118.278 25.5067 118.385 25.6C118.492 25.6933 118.638 25.76 118.825 25.8C119.012 25.84 119.225 25.86 119.465 25.86H119.505V27ZM137.904 14.14C137.358 14.14 136.851 14.28 136.384 14.56C135.918 14.8267 135.518 15.2133 135.184 15.72C134.851 16.2267 134.591 16.8333 134.404 17.54C134.218 18.2467 134.124 19.0333 134.124 19.9C134.124 20.7933 134.218 21.5933 134.404 22.3C134.591 23.0067 134.851 23.6133 135.184 24.12C135.531 24.6133 135.958 24.9933 136.464 25.26C136.971 25.5267 137.544 25.66 138.184 25.66C138.864 25.66 139.464 25.4933 139.984 25.16C140.518 24.8133 140.958 24.3467 141.304 23.76C141.664 23.1733 141.924 22.5067 142.084 21.76L143.484 22.3C143.271 23.26 142.918 24.1133 142.424 24.86C141.944 25.5933 141.318 26.1667 140.544 26.58C139.771 26.9933 138.858 27.2 137.804 27.2C136.778 27.2 135.831 27.0267 134.964 26.68C134.111 26.32 133.371 25.82 132.744 25.18C132.118 24.5267 131.631 23.7533 131.284 22.86C130.938 21.9667 130.764 20.98 130.764 19.9C130.764 18.82 130.944 17.8333 131.304 16.94C131.664 16.0467 132.158 15.28 132.784 14.64C133.411 13.9867 134.131 13.4867 134.944 13.14C135.771 12.78 136.644 12.6 137.564 12.6C138.498 12.6 139.278 12.7533 139.904 13.06C140.531 13.3667 141.038 13.7933 141.424 14.34C141.824 14.8867 142.131 15.52 142.344 16.24L141.384 16.12L141.744 12.8H143.244V17.22H141.524C141.324 16.6067 141.064 16.0733 140.744 15.62C140.424 15.1533 140.031 14.7933 139.564 14.54C139.111 14.2733 138.558 14.14 137.904 14.14ZM151.605 20.84V22C151.071 22.0667 150.598 22.1467 150.185 22.24C149.785 22.3333 149.431 22.4533 149.125 22.6C148.818 22.7333 148.571 22.8867 148.385 23.06C148.198 23.2333 148.051 23.4333 147.945 23.66C147.851 23.8867 147.805 24.1333 147.805 24.4C147.805 24.6933 147.858 24.9467 147.965 25.16C148.085 25.3733 148.251 25.54 148.465 25.66C148.678 25.7667 148.931 25.82 149.225 25.82C149.585 25.82 149.905 25.7267 150.185 25.54C150.478 25.34 150.738 25.0733 150.965 24.74C151.205 24.3933 151.405 23.98 151.565 23.5V24.98C151.378 25.4467 151.125 25.8467 150.805 26.18C150.485 26.5133 150.105 26.7667 149.665 26.94C149.238 27.1133 148.751 27.2 148.205 27.2C147.551 27.2 146.978 27.1 146.485 26.9C145.991 26.6867 145.605 26.38 145.325 25.98C145.058 25.5667 144.925 25.0733 144.925 24.5C144.925 23.94 145.065 23.46 145.345 23.06C145.625 22.66 146.045 22.32 146.605 22.04C147.165 21.7467 147.858 21.5067 148.685 21.32C149.525 21.12 150.498 20.96 151.605 20.84ZM151.345 27V24.96H151.125V19.78C151.125 19.34 151.058 18.9933 150.925 18.74C150.805 18.4733 150.625 18.2867 150.385 18.18C150.145 18.0733 149.845 18.02 149.485 18.02C148.951 18.02 148.511 18.1333 148.165 18.36C147.818 18.5867 147.545 18.86 147.345 19.18C147.265 19.0467 147.225 18.92 147.225 18.8C147.225 18.6667 147.258 18.5467 147.325 18.44C147.391 18.32 147.485 18.22 147.605 18.14C147.738 18.0467 147.891 17.9867 148.065 17.96V20.02H145.585V17.88C145.785 17.7333 146.071 17.56 146.445 17.36C146.818 17.1467 147.285 16.9667 147.845 16.82C148.418 16.6733 149.065 16.6 149.785 16.6C150.398 16.6 150.958 16.66 151.465 16.78C151.985 16.9 152.438 17.1 152.825 17.38C153.225 17.6467 153.531 18 153.745 18.44C153.971 18.8667 154.085 19.3933 154.085 20.02V25.16C154.085 25.32 154.131 25.4467 154.225 25.54C154.331 25.62 154.471 25.68 154.645 25.72C154.831 25.76 155.045 25.7867 155.285 25.8L155.345 25.82V27H151.345ZM162.487 24.46C162.487 24.22 162.42 24.02 162.287 23.86C162.154 23.7 161.974 23.5667 161.747 23.46C161.52 23.3533 161.26 23.26 160.967 23.18C160.674 23.1 160.367 23.02 160.047 22.94C159.634 22.8333 159.22 22.7133 158.807 22.58C158.407 22.4467 158.034 22.2667 157.687 22.04C157.354 21.8 157.08 21.5 156.867 21.14C156.667 20.7667 156.567 20.3 156.567 19.74C156.567 19.0733 156.74 18.5 157.087 18.02C157.434 17.54 157.927 17.18 158.567 16.94C159.207 16.6867 159.96 16.56 160.827 16.56C161.52 16.56 162.12 16.6133 162.627 16.72C163.147 16.8267 163.567 16.9533 163.887 17.1C164.207 17.2467 164.44 17.3733 164.587 17.48V19.6H162.327V17.82C162.514 17.82 162.66 17.8467 162.767 17.9C162.874 17.9533 162.94 18.0267 162.967 18.12C163.007 18.2133 163.02 18.32 163.007 18.44C162.994 18.5467 162.96 18.66 162.907 18.78C162.76 18.5933 162.58 18.44 162.367 18.32C162.167 18.1867 161.934 18.0933 161.667 18.04C161.414 17.9733 161.134 17.94 160.827 17.94C160.267 17.94 159.847 18.0533 159.567 18.28C159.287 18.4933 159.147 18.7867 159.147 19.16C159.147 19.4133 159.214 19.62 159.347 19.78C159.494 19.94 159.687 20.08 159.927 20.2C160.167 20.3067 160.44 20.4067 160.747 20.5C161.054 20.58 161.374 20.66 161.707 20.74C162.12 20.8467 162.534 20.9733 162.947 21.12C163.374 21.2533 163.754 21.44 164.087 21.68C164.434 21.9067 164.707 22.2 164.907 22.56C165.12 22.9067 165.227 23.3467 165.227 23.88C165.227 24.56 165.047 25.1533 164.687 25.66C164.327 26.1533 163.8 26.5333 163.107 26.8C162.427 27.0667 161.587 27.2 160.587 27.2C159.894 27.2 159.26 27.1467 158.687 27.04C158.127 26.9333 157.64 26.8 157.227 26.64C156.827 26.4667 156.494 26.3 156.227 26.14V23.84H158.507V26.22C158.28 26.1 158.1 25.9733 157.967 25.84C157.847 25.7067 157.767 25.5733 157.727 25.44C157.7 25.3067 157.7 25.1867 157.727 25.08C157.767 24.96 157.834 24.8733 157.927 24.82C158.14 25.06 158.374 25.2533 158.627 25.4C158.894 25.5333 159.187 25.64 159.507 25.72C159.84 25.7867 160.2 25.82 160.587 25.82C160.974 25.82 161.307 25.7667 161.587 25.66C161.867 25.5533 162.087 25.4 162.247 25.2C162.407 25 162.487 24.7533 162.487 24.46ZM165.807 18.16V16.9H165.887C166.207 16.9 166.487 16.8733 166.727 16.82C166.967 16.7667 167.147 16.68 167.267 16.56C167.4 16.4267 167.467 16.24 167.467 16L169.327 16.8H173.107V18.16H165.807ZM170.367 23.44C170.367 23.9867 170.427 24.4267 170.547 24.76C170.68 25.08 170.86 25.3133 171.087 25.46C171.327 25.5933 171.614 25.66 171.947 25.66C172.214 25.66 172.46 25.6333 172.687 25.58C172.927 25.5133 173.114 25.4667 173.247 25.44V26.86C173.14 26.9133 172.987 26.9667 172.787 27.02C172.587 27.0733 172.36 27.1133 172.107 27.14C171.854 27.18 171.574 27.2 171.267 27.2C170.547 27.2 169.887 27.0933 169.287 26.88C168.7 26.6533 168.227 26.2733 167.867 25.74C167.507 25.1933 167.327 24.4533 167.327 23.52V17.16L167.467 17.02V14H170.367V23.44ZM181.958 16.72V19.4C181.851 19.36 181.731 19.3333 181.598 19.32C181.478 19.2933 181.344 19.2733 181.198 19.26C181.064 19.2467 180.931 19.24 180.798 19.24C180.464 19.24 180.164 19.28 179.898 19.36C179.644 19.4267 179.404 19.5333 179.178 19.68C178.964 19.8267 178.771 20.0267 178.598 20.28C178.424 20.52 178.258 20.82 178.098 21.18V19.92C178.284 19.28 178.511 18.7133 178.778 18.22C179.044 17.7267 179.378 17.34 179.778 17.06C180.178 16.78 180.658 16.64 181.218 16.64C181.378 16.64 181.524 16.6467 181.658 16.66C181.791 16.6733 181.891 16.6933 181.958 16.72ZM174.178 27V25.86H174.218C174.578 25.86 174.871 25.82 175.098 25.74C175.338 25.6467 175.458 25.4733 175.458 25.22V18.78C175.458 18.6067 175.418 18.48 175.338 18.4C175.271 18.32 175.151 18.2533 174.978 18.2C174.818 18.1333 174.611 18.0733 174.358 18.02L174.178 17.98V16.8H178.278V19.94L178.498 19.7V25.36C178.498 25.5067 178.578 25.62 178.738 25.7C178.898 25.7667 179.091 25.8133 179.318 25.84C179.544 25.8533 179.738 25.86 179.898 25.86H180.118V27H174.178ZM194.23 21.9C194.23 22.94 193.997 23.86 193.53 24.66C193.063 25.46 192.41 26.0867 191.57 26.54C190.73 26.98 189.743 27.2 188.61 27.2C187.477 27.2 186.49 26.98 185.65 26.54C184.81 26.0867 184.157 25.46 183.69 24.66C183.223 23.86 182.99 22.94 182.99 21.9C182.99 21.1133 183.117 20.4 183.37 19.76C183.637 19.1067 184.017 18.5467 184.51 18.08C185.017 17.6 185.61 17.2333 186.29 16.98C186.983 16.7267 187.757 16.6 188.61 16.6C189.45 16.6 190.21 16.7267 190.89 16.98C191.583 17.2333 192.177 17.6 192.67 18.08C193.177 18.5467 193.563 19.1067 193.83 19.76C194.097 20.4 194.23 21.1133 194.23 21.9ZM186.11 21.9C186.11 22.7133 186.21 23.4133 186.41 24C186.61 24.5867 186.897 25.0333 187.27 25.34C187.643 25.6333 188.09 25.78 188.61 25.78C189.13 25.78 189.577 25.6333 189.95 25.34C190.323 25.0333 190.603 24.5867 190.79 24C190.99 23.4133 191.09 22.7133 191.09 21.9C191.09 21.0733 190.99 20.3733 190.79 19.8C190.603 19.2267 190.323 18.7933 189.95 18.5C189.577 18.1933 189.13 18.04 188.61 18.04C188.09 18.04 187.643 18.1933 187.27 18.5C186.897 18.7933 186.61 19.2267 186.41 19.8C186.21 20.3733 186.11 21.0733 186.11 21.9Z" fill="white"/>
<g clip-path="url(#clip0_150_305)" filter="url(#filter0_d_150_305)">
<path d="M37.0659 22.7417C36.9444 22.8735 36.9738 23.0279 36.9411 23.159C36.6993 24.1295 36.2533 24.9649 35.3869 25.5209C35.2625 25.6008 35.2073 25.6945 35.1881 25.8354C35.151 26.1074 35.1047 26.3797 34.9864 26.6308C34.8478 26.9248 34.6935 27.233 34.3094 27.2119C33.9451 27.1919 33.8822 26.8672 33.7994 26.564C33.5759 26.8523 33.4245 27.2222 32.984 27.1477C32.6622 27.0933 32.628 26.803 32.5483 26.5327C32.3593 26.7116 32.2141 26.947 31.9251 26.9286C31.7397 26.9168 31.6375 26.7839 31.5603 26.6251C31.1769 27.2601 30.7721 27.869 30.7833 28.652C30.7877 28.9585 30.8489 29.2108 31.0621 29.4293C31.2078 29.5786 31.3558 29.7286 31.4807 29.8949C31.7493 30.2526 31.6927 30.5743 31.3178 30.8212C30.9716 31.0493 30.5792 31.1715 30.1722 31.2133C28.8233 31.3516 27.4688 31.3318 26.1197 31.2498C25.1908 31.1933 24.5005 30.6782 24.015 29.888C23.7784 29.5029 23.5924 29.0925 23.4048 28.6832C23.3466 28.556 23.2874 28.5037 23.1354 28.5204C20.81 28.7761 18.5028 28.7427 16.2392 28.0613C16.2197 28.0554 16.196 28.0634 16.1661 28.0655C16.0761 28.4952 16.0702 28.9348 16.0339 29.3715C16.0163 29.5839 16.1203 29.7237 16.2644 29.8544C16.4939 30.0627 16.6732 30.3063 16.5868 30.6336C16.4955 30.9791 16.1946 31.1038 15.886 31.1566C14.3379 31.4213 12.8299 31.2547 11.3302 30.7902C10.1454 30.4234 9.43611 29.6901 9.21728 28.4752C9.20376 28.4002 9.20317 28.3196 9.11436 28.2633C8.99114 28.5751 8.8524 28.88 8.45118 28.8893C8.11881 28.8971 7.92379 28.6948 7.57975 28.0032C7.46457 28.0431 7.44342 28.1652 7.37441 28.2432C6.96131 28.7101 6.42017 28.6453 6.15201 28.0857C6.00325 27.7753 5.94032 27.4399 5.91076 27.0989C5.90028 26.978 5.89943 26.8648 5.78784 26.7757C4.73333 25.9336 4.35032 24.764 4.19366 23.4858C4.17227 23.3113 4.15171 23.1367 4.1275 22.9339C4.0772 22.791 4.10961 22.6708 4.09992 22.5238C4.09737 22.0972 4.10518 21.7002 4.08088 21.2777C4.06592 21.1173 4.06592 20.9825 4.06592 20.8189C4.21943 20.4462 4.18791 20.0699 4.24991 19.7101C4.49799 18.2706 4.92947 16.8944 5.61698 15.6026C5.68486 15.475 5.77137 15.3716 5.60304 15.2373C5.47633 15.1363 5.54058 14.9702 5.56852 14.8315C5.80842 13.6406 6.24357 12.5153 6.72435 11.4055C7.81235 8.89389 9.61005 6.96123 11.7263 5.29317C13.3386 4.02232 15.1171 3.09242 17.1588 2.72783C17.3132 2.70027 17.4112 2.61135 17.5158 2.51223C18.7249 1.36666 20.1975 1.02423 21.8077 1.12323C22.1538 1.1445 22.3204 1.37203 22.2026 1.68926C22.1193 1.91347 22.2283 1.92493 22.3737 1.96672C22.6702 2.05189 23.0261 2.10088 23.2115 2.32741C23.5571 2.74978 24.0452 2.81986 24.4947 2.98733C27.4577 4.09106 29.6896 6.10849 31.5223 8.6162C32.5702 10.05 33.4413 11.5809 34.0559 13.2599C34.3304 14.0098 34.7664 14.697 35.1695 15.391C35.986 16.7963 36.6633 18.2545 36.8989 19.883C36.9413 20.1763 36.978 20.4706 37.0416 20.7772C37.0659 20.8817 37.0659 20.9733 37.0659 21.0925C36.9973 21.2352 37.0434 21.3597 37.0515 21.4979C37.0659 21.6291 37.0659 21.7423 37.0659 21.8837C36.9979 22.0492 37.0442 22.1944 37.0512 22.3549C37.0659 22.4871 37.0659 22.6003 37.0659 22.7417Z" fill="black"/>
<path d="M4.06592 21.2829C4.20873 21.6453 4.08767 22.053 4.12599 22.4827C4.11048 22.5209 4.10014 22.5281 4.07786 22.5207C4.06592 22.1086 4.06592 21.7112 4.06592 21.2829Z" fill="#747595"/>
<path d="M37.066 22.3451C36.9463 22.2406 37.0015 22.0924 37.0478 21.9293C37.066 22.0468 37.066 22.1815 37.066 22.3451Z" fill="#494B75"/>
<path d="M37.0659 21.4877C36.9623 21.4035 36.9913 21.2769 37.0463 21.1348C37.0659 21.2331 37.0659 21.3463 37.0659 21.4877Z" fill="#4C4E77"/>
<path d="M4.06592 22.5343C4.06592 22.506 4.09313 22.5117 4.10697 22.5127C4.12567 22.6259 4.13052 22.7381 4.1298 22.878C4.12423 22.9056 4.09515 22.9025 4.08054 22.9023C4.06592 22.7889 4.06592 22.6757 4.06592 22.5343Z" fill="#B6B7C8"/>
<path d="M21.5035 2.41945C21.3063 2.4646 21.1216 2.48787 20.9362 2.50452C20.777 2.51883 20.6933 2.59795 20.7033 2.7603C20.7126 2.9095 20.805 2.97117 20.9457 2.97063C21.0887 2.97007 21.2323 2.97437 21.3744 2.96261C22.7327 2.85022 23.9846 3.23638 25.1927 3.79655C27.2466 4.74895 28.9133 6.1796 30.3192 7.94304C31.3234 9.2025 32.2017 10.5374 32.9205 11.977C33.2997 12.7363 33.5926 13.5274 33.7302 14.3698C33.7454 14.463 33.8144 14.5772 33.7046 14.6369C33.5971 14.6955 33.5274 14.5828 33.4582 14.5181C33.1106 14.1927 32.8155 13.8265 32.6066 13.396C32.5292 13.2366 32.4432 13.0856 32.3093 12.9648C32.1951 12.8617 32.0778 12.8508 31.9487 12.9306C31.8194 13.0107 31.8324 13.1354 31.8598 13.2537C31.8767 13.3263 31.9197 13.3951 31.9605 13.4596C32.74 14.6891 33.2355 16.0322 33.5373 17.449C33.5958 17.7235 33.6603 18.0059 33.6297 18.3196C33.4058 18.2339 33.3847 18.0198 33.2944 17.8623C33.2155 17.7246 33.154 17.5767 32.9506 17.6401C32.7561 17.7008 32.7391 17.8605 32.7776 18.0145C32.9674 18.7737 33.0336 19.5469 33.0796 20.3249C33.1205 21.0173 33.1048 21.7092 33.0941 22.4013C33.0925 22.501 33.0894 22.6598 32.9745 22.6787C32.8449 22.7 32.8211 22.5417 32.7879 22.4454C32.6015 21.9054 32.4758 21.35 32.3712 20.7886C32.3415 20.6295 32.3503 20.39 32.0985 20.4107C31.8518 20.4309 31.799 20.6412 31.7972 20.8514C31.7905 21.6541 31.8033 22.4573 31.7819 23.2596C31.7526 24.3576 31.4921 25.4071 31.0524 26.4122C31.0198 26.4866 31.0074 26.5854 30.9074 26.6159C30.8448 26.5794 30.8679 26.5198 30.8647 26.4707C30.8539 26.3009 30.7968 26.1358 30.6044 26.1671C30.4159 26.1977 30.3054 26.3519 30.3455 26.5609C30.4633 27.1761 30.3935 27.7831 30.2875 28.3915C30.1933 28.933 30.3181 29.401 30.7244 29.8051C31.1993 30.2772 31.2586 30.343 30.4949 30.6218C30.0787 30.7737 29.6302 30.7978 29.197 30.8059C28.2207 30.8241 27.2421 30.8827 26.2664 30.7664C25.4162 30.6652 24.7918 30.2381 24.3877 29.488C24.2366 29.2074 24.1033 28.9173 23.954 28.6358C23.8674 28.4724 23.8619 28.4014 24.0887 28.3688C25.1859 28.2111 26.2662 27.9711 27.331 27.6604C27.5092 27.6084 27.6639 27.5416 27.6131 27.3353C27.5571 27.1078 27.3803 27.1244 27.1891 27.1799C25.8082 27.5809 24.4098 27.916 22.9756 28.0374C20.7561 28.2254 18.5447 28.23 16.3926 27.516C15.8362 27.3313 15.7461 27.4001 15.6759 27.9734C15.6214 28.4194 15.5652 28.864 15.5476 29.3142C15.5351 29.6358 15.6386 29.8884 15.8676 30.109C15.9721 30.2096 16.1661 30.2973 16.1099 30.4675C16.0481 30.6546 15.8328 30.6638 15.662 30.6896C15.0404 30.7833 14.4114 30.8021 13.7888 30.7487C12.8 30.6638 11.8456 30.4207 10.9356 30.0103C10.3048 29.7259 9.99236 29.219 9.87124 28.5381C10.5486 28.5243 10.6765 28.3935 10.6651 27.7035C10.6637 27.6164 10.6649 27.5293 10.6649 27.4397C10.8334 27.4119 10.9025 27.5506 11.0096 27.6148C11.2245 27.7436 11.4496 27.7713 11.6658 27.6403C11.8799 27.5106 11.9066 27.3074 11.8742 27.066C11.8392 26.8048 11.8176 26.5437 11.7354 26.2911C11.6967 26.1721 11.7 26.0548 11.778 25.9452C11.9696 25.6761 12.1502 25.4 12.2554 25.0833C12.3008 24.9465 12.4092 24.9452 12.5218 24.9452C12.7635 24.945 13.0037 24.9437 13.241 24.8789C13.7539 24.7389 13.8723 24.332 13.5112 23.9312C13.2794 23.674 12.989 23.4953 12.691 23.3298C12.5464 23.2495 12.4496 23.1626 12.4485 22.9771C12.4404 21.5981 12.0843 20.2657 11.8949 18.9108C11.8464 18.5637 11.7915 18.218 11.7843 17.8657C11.7737 17.3498 11.7466 16.8343 11.7317 16.3186C11.7264 16.1332 11.7187 15.9336 11.48 15.9346C11.2595 15.9355 11.2034 16.1157 11.2025 16.3102C11.198 17.321 11.2578 18.3265 11.4223 19.3257C11.6679 20.817 11.9808 22.2974 11.9336 23.8268C11.895 25.0789 11.3372 25.9702 10.2222 26.4908C9.24324 26.9479 8.20261 27.1115 7.1438 26.82C5.95445 26.4927 5.31572 25.6045 4.99503 24.4802C4.65803 23.2987 4.62486 22.0877 4.70354 20.8601C4.80546 19.2699 5.21695 17.7696 5.85274 16.324C6.25584 15.4075 6.80707 14.5922 7.65289 14.0163C7.78965 13.9232 7.87601 13.8265 7.78301 13.6674C7.69577 13.5182 7.56134 13.5094 7.41032 13.5765C6.98442 13.7658 6.68687 14.1052 6.3904 14.4452C6.33486 14.5089 6.30134 14.593 6.17537 14.6221C6.3803 13.699 6.688 12.8349 7.04689 11.9872C7.59807 10.6854 8.27861 9.46419 9.20336 8.38265C10.5499 6.80785 12.0886 5.46612 13.8825 4.42276C14.7913 3.89421 15.7564 3.51109 16.7837 3.28353C17.1503 3.20232 17.8088 2.86419 18.1216 2.61656C18.9496 1.96127 19.8953 1.61737 20.9471 1.57902C21.1551 1.57143 21.3716 1.43901 21.6035 1.59469C21.4862 1.72321 21.3389 1.75699 21.1987 1.80377C21.0433 1.85561 20.864 1.88358 20.8935 2.11699C20.9204 2.32952 21.1014 2.31445 21.243 2.34978C21.3048 2.36518 21.374 2.35061 21.467 2.34677C21.5014 2.36082 21.5085 2.37775 21.5035 2.41945Z" fill="#A79BD7"/>
<path d="M33.2615 23.3819C33.6369 22.9255 33.6407 22.4039 33.6384 21.8734C33.6345 20.9843 33.6179 20.0965 33.5145 19.2125C33.4993 19.0823 33.5216 19.0534 33.6669 19.0614C34.052 19.0824 34.2605 18.84 34.2175 18.4344C34.1094 17.4162 33.8997 16.4202 33.5038 15.4722C33.4034 15.2317 33.4436 15.148 33.7048 15.1811C33.8409 15.1984 33.9849 15.1743 34.0751 15.0772C34.2707 14.8666 34.344 14.9579 34.4609 15.1636C35.0692 16.2334 35.6931 17.2972 36.0445 18.4857C36.4966 20.015 36.7436 21.5745 36.3917 23.157C36.0896 24.5158 35.1168 25.4937 33.5618 25.5581C33.1062 25.5769 32.6687 25.5783 32.2565 25.351C32.0891 25.2587 32.0144 25.1407 32.0619 24.9491C32.2391 24.234 32.2917 23.5034 32.3262 22.7115C32.5398 23.0495 32.7075 23.3905 33.1712 23.3569C33.2111 23.3876 33.2173 23.4201 33.2121 23.478C33.0722 23.8441 33.099 24.1924 33.1845 24.537C33.2277 24.7116 33.321 24.8669 33.5179 24.9108C33.7319 24.9585 33.8745 24.8346 33.9971 24.6858C34.1784 24.4656 34.2329 24.1937 34.287 23.9242C34.3021 23.8488 34.3011 23.7602 34.202 23.7366C34.1088 23.7144 34.0617 23.7852 34.0284 23.8561C33.9628 23.9957 33.9463 24.1531 33.8776 24.2917C33.8235 24.4007 33.7662 24.528 33.6199 24.5049C33.4774 24.4824 33.451 24.347 33.4296 24.2265C33.3863 23.9825 33.4797 23.7149 33.2899 23.4732C33.2712 23.4373 33.2657 23.4218 33.2615 23.3819Z" fill="#A79BD7"/>
<path d="M8.10772 27.8251C8.05963 27.7018 7.96301 27.5747 8.07146 27.5022C8.22039 27.4026 8.41279 27.4478 8.58377 27.4695C8.72256 27.487 8.67472 27.6201 8.68657 27.7115C8.68797 27.7223 8.68685 27.7334 8.68676 27.7444C8.685 27.9624 8.72154 28.2856 8.51483 28.3292C8.25324 28.3843 8.20897 28.052 8.10772 27.8251Z" fill="#A79BD7"/>
<path d="M6.88503 27.9784C6.67357 27.911 6.42079 27.4578 6.46757 27.2738C6.47421 27.2476 6.50858 27.204 6.51909 27.2071C6.73785 27.2696 6.99101 27.2905 7.16096 27.42C7.29389 27.5212 7.13314 27.7131 7.05765 27.8491C7.02846 27.9017 6.96036 27.9327 6.88503 27.9784Z" fill="#A79BD7"/>
<path d="M12.3832 24.1084C12.3629 23.8616 12.4359 23.7911 12.6369 23.9193C12.6827 23.9486 12.7398 23.9647 12.7775 24.0014C12.8926 24.1134 13.182 24.1705 13.0653 24.3592C12.9709 24.5119 12.693 24.5204 12.4892 24.4714C12.3069 24.4275 12.4088 24.2527 12.3832 24.1084Z" fill="#A79BD7"/>
<path d="M9.82149 27.7676C9.76989 27.6954 9.73391 27.6409 9.69861 27.586C9.64137 27.4969 9.514 27.3825 9.58938 27.307C9.67949 27.2167 9.84175 27.1929 9.97696 27.1555C10.043 27.1373 10.0617 27.2021 10.0705 27.2592C10.108 27.5024 10.1829 27.7434 10.1144 28.0013C9.97627 27.98 9.92748 27.8555 9.82149 27.7676Z" fill="#A79BD7"/>
<path d="M10.8851 26.9135C10.7783 26.6467 11.0154 26.6054 11.1366 26.5559C11.2835 26.4959 11.2587 26.6922 11.3048 26.7768C11.3289 26.8209 11.3275 26.8838 11.3237 26.9371C11.3178 27.0186 11.3655 27.125 11.2616 27.1711C11.1616 27.2153 11.1039 27.1251 11.0409 27.0685C10.9922 27.0247 10.9475 26.9765 10.8851 26.9135Z" fill="#A79BD7"/>
<path d="M34.2314 26.2584C34.2374 26.1666 34.2267 26.0919 34.2556 26.0388C34.3209 25.9193 34.4618 25.8781 34.5662 25.9128C34.6759 25.9493 34.6278 26.0848 34.598 26.1741C34.5437 26.3369 34.5137 26.5148 34.3357 26.6656C34.2975 26.5246 34.2651 26.405 34.2314 26.2584Z" fill="#A79BD7"/>
<path d="M33.0406 26.2159C33.0793 26.0334 33.2068 26.0472 33.2978 26.0895C33.4293 26.1506 33.3412 26.2589 33.2995 26.3368C33.2522 26.4254 33.23 26.5939 33.1089 26.5579C32.9721 26.5173 33.0631 26.3512 33.0406 26.2159Z" fill="#A79BD7"/>
<path d="M32.177 25.8726C32.2947 26.0797 32.1552 26.1773 32.0398 26.3027C31.9405 25.9297 31.9538 25.8834 32.177 25.8726Z" fill="#A79BD7"/>
<path d="M21.521 2.44599C21.4911 2.42756 21.4909 2.41093 21.4924 2.36908C21.7215 2.26441 21.9371 2.3018 22.1477 2.44779C21.9487 2.44779 21.7498 2.44779 21.521 2.44599Z" fill="#684990"/>
<path d="M33.1735 23.4994C33.1607 23.4528 33.1695 23.4247 33.1884 23.3764C33.213 23.3583 33.2275 23.3591 33.2525 23.358C33.2718 23.3685 33.2807 23.3796 33.2965 23.4109C33.3096 23.5127 33.2588 23.5232 33.1735 23.4994Z" fill="#3A316B"/>
<path d="M9.87174 28.5137C9.8626 28.5039 9.85525 28.4923 9.8479 28.4808C9.85502 28.4835 9.86215 28.4861 9.87304 28.4986C9.8768 28.5085 9.87353 28.5121 9.87174 28.5137Z" fill="#8456A6"/>
<path d="M14.5529 13.9203C14.7475 14.2814 14.9325 14.6172 15.2198 14.8851C15.4108 15.0631 15.577 15.0452 15.767 14.8797C16.0242 14.6557 16.1082 14.3498 16.2022 14.0454C16.2604 13.8569 16.313 13.6665 16.3765 13.4798C16.4219 13.3464 16.503 13.2554 16.6654 13.2582C16.8183 13.2609 16.9082 13.3334 16.972 13.464C17.1121 13.7503 17.2414 14.0435 17.4035 14.317C17.7299 14.8676 18.1279 14.9068 18.5656 14.4401C18.8392 14.1485 19.0119 13.7909 19.1958 13.4399C19.2878 13.2646 19.347 13.0086 19.6112 13.0348C19.852 13.0587 19.9162 13.2763 19.9922 13.4806C20.118 13.8191 20.2331 14.1687 20.4692 14.4523C20.6923 14.7202 20.8457 14.7195 21.1042 14.4898C21.3317 14.2875 21.4807 14.0348 21.61 13.7652C21.6618 13.6571 21.7151 13.5447 21.7915 13.4543C22.0147 13.1898 22.2388 13.2335 22.3397 13.5673C22.4449 13.9156 22.559 14.2598 22.7411 14.5746C23.0639 15.1325 23.4999 15.1482 23.8849 14.6241C24.0283 14.429 24.1578 14.2271 24.2374 13.9943C24.298 13.8168 24.3643 13.6399 24.6146 13.6521C24.8644 13.6643 24.8732 13.8608 24.9127 14.0227C24.9812 14.3035 25.0927 14.5648 25.232 14.8148C25.5312 15.3515 25.9892 15.3917 26.389 14.9185C26.611 14.6557 26.7698 14.3554 26.9015 14.0394C26.9437 13.9382 26.9844 13.836 27.0334 13.738C27.1028 13.5995 27.2096 13.5157 27.3751 13.5299C27.5294 13.5432 27.601 13.6485 27.6557 13.7752C27.7515 13.9968 27.8466 14.2187 27.9455 14.4389C27.986 14.529 28.0265 14.6214 28.0827 14.7017C28.254 14.9462 28.4274 15.2152 28.7784 15.1701C29.1077 15.1278 29.1992 14.8387 29.269 14.5742C29.3526 14.2576 29.3998 13.9313 29.459 13.6084C29.4863 13.4597 29.5173 13.3064 29.7152 13.343C29.902 13.3775 29.9545 13.516 29.9162 13.6931C29.817 14.1522 29.7726 14.6203 29.5999 15.0671C29.4374 15.4875 29.6206 15.9146 29.7001 16.3271C29.8611 17.1621 29.8383 17.9897 29.6533 18.8086C29.4639 19.6465 28.9746 20.2877 28.1937 20.6573C27.8858 20.803 27.881 20.955 27.9582 21.2432C28.226 22.2422 28.4269 23.2483 28.1737 24.2915C28.0279 24.8927 27.6841 25.3355 27.2021 25.6935C26.2448 26.4044 25.1496 26.7176 23.9785 26.8022C22.5454 26.9056 21.2319 26.5727 20.0984 25.6657C19.4442 25.1421 19.0071 24.4379 18.5999 23.7184C18.3348 23.25 18.0804 22.7754 17.8228 22.3027C17.7471 22.1638 17.6728 22.0445 17.4804 22.0445C15.9965 22.0447 15.1651 21.1461 14.5952 19.9137C14.2132 19.0877 13.9983 18.2008 13.9955 17.3012C13.9922 16.232 13.8903 15.1549 14.0914 14.0892C14.1534 13.761 14.2496 13.7108 14.5529 13.9203Z" fill="black"/>
<path d="M20.6747 10.4521C20.13 10.2363 19.6734 9.94388 19.3698 9.45752C19.0697 8.97701 19.1849 8.40314 19.6394 8.05693C20.2087 7.6233 20.8679 7.53888 21.5472 7.60634C22.2768 7.6788 23.003 7.7934 23.7098 7.99862C24.2627 8.15917 24.788 8.37491 25.1873 8.81702C25.5708 9.24166 25.5342 9.70617 25.0593 10.0243C23.6864 10.944 22.2219 11.0142 20.6747 10.4521Z" fill="black"/>
<path d="M15.0697 8.75389C15.7614 8.63763 16.4204 8.58079 17.0718 8.83497C17.6745 9.07014 17.84 9.54157 17.4934 10.0914C17.164 10.6139 16.6434 10.8703 16.0952 11.0753C15.3162 11.3664 14.517 11.5247 13.6831 11.3467C13.5978 11.3284 13.5131 11.3023 13.4318 11.2704C12.8122 11.0268 12.6354 10.4764 12.9882 9.91528C13.4648 9.1572 14.2297 8.91846 15.0697 8.75389Z" fill="black"/>
<path d="M26.384 7.41415C25.3061 7.84763 24.2956 7.60643 23.3042 7.19897C22.9683 7.06094 22.6667 6.84616 22.4389 6.55851C22.0063 6.0122 22.1813 5.41761 22.8239 5.15243C23.2509 4.97623 23.6786 5.01674 24.1175 5.07813C24.7745 5.16999 25.4047 5.34451 26.0032 5.62914C26.2021 5.7237 26.3802 5.85115 26.539 6.00667C27.076 6.53265 27.0359 6.96573 26.384 7.41415Z" fill="black"/>
<path d="M16.9478 5.55566C17.5963 5.00265 18.3546 5.03777 19.098 5.10927C19.6938 5.16657 20.3009 5.24403 20.796 5.65403C21.1886 5.97916 21.2261 6.37168 20.8669 6.72588C20.3103 7.27479 19.5835 7.40214 18.8545 7.52593C18.1786 7.64069 17.5364 7.56782 16.9683 7.16583C16.3422 6.72285 16.3343 6.02146 16.9478 5.55566Z" fill="black"/>
<path d="M28.5708 9.02312C29.1706 9.50303 29.6673 10.0394 29.9872 10.7205C30.1151 10.9929 30.2273 11.2743 30.023 11.5618C29.8019 11.8732 29.4574 11.9511 29.1383 11.8636C27.8399 11.5077 26.817 10.7799 26.2605 9.51395C26.1134 9.17949 26.063 8.80191 26.3608 8.49397C26.6726 8.17143 27.0529 8.218 27.4365 8.32697C27.8712 8.45047 28.2135 8.72739 28.5708 9.02312Z" fill="black"/>
<path d="M33.1284 23.4924C33.1937 23.4757 33.2354 23.4704 33.2903 23.4481C33.4743 23.4623 33.4891 23.5969 33.4958 23.7307C33.503 23.873 33.4956 24.0161 33.5039 24.1583C33.5108 24.2752 33.5019 24.4375 33.6389 24.4571C33.7604 24.4745 33.7844 24.3147 33.8208 24.2172C33.8704 24.0846 33.8944 23.9423 33.9442 23.8097C33.9907 23.6858 34.0538 23.5474 34.2238 23.6031C34.3841 23.6556 34.4234 23.7774 34.3792 23.9454C34.2927 24.2745 34.2256 24.6077 33.9636 24.8572C33.6882 25.1194 33.3424 25.0835 33.1793 24.7409C32.9911 24.3459 32.9687 23.9258 33.1284 23.4924Z" fill="black"/>
<path d="M17.4625 20.858C17.3781 20.7409 17.3131 20.6371 17.2306 20.5499C17.1318 20.4454 17.0115 20.3321 16.8631 20.4543C16.7179 20.5739 16.736 20.7246 16.8561 20.8589C17.038 21.0622 17.1992 21.278 17.3248 21.5446C16.5788 21.5326 16.0313 21.2002 15.5798 20.6623C15.4532 20.5114 15.5293 20.3911 15.5866 20.271C15.9448 19.52 16.5691 19.0482 17.3318 18.8106C19.109 18.2568 20.7554 18.5142 22.1982 19.7499C22.3339 19.8662 22.4581 19.9218 22.5975 19.7767C22.7392 19.6293 22.634 19.5185 22.5298 19.4123C22.4759 19.3573 22.4217 19.3026 22.3657 19.2498C22.0439 18.9469 22.0492 18.8911 22.4647 18.6851C24.5631 17.6448 26.4673 18.7393 27.2767 20.647C27.6165 21.4479 27.7604 22.3046 27.8285 23.1743C27.9302 24.4722 27.301 25.2962 26.167 25.8072C25.356 26.1727 24.4933 26.3861 23.6162 26.379C21.7004 26.3635 20.187 25.5849 19.2268 23.8591C18.6664 22.852 18.1517 21.8171 17.4625 20.858Z" fill="#937994"/>
<path d="M21.0996 8.05789C21.424 8.08275 21.7198 8.0991 22.0131 8.13586C22.1654 8.15495 22.2598 8.20988 22.1185 8.39023C21.7476 8.86391 21.6522 9.40216 21.839 9.97314C21.9125 10.1976 21.849 10.2684 21.6405 10.2262C20.999 10.0964 20.3835 9.90051 19.9123 9.41222C19.53 9.01603 19.5784 8.64981 20.0374 8.35392C20.3518 8.15123 20.7068 8.09029 21.0996 8.05789Z" fill="white"/>
<path d="M15.1272 9.41709C14.9144 9.917 15.1068 10.2692 15.479 10.5535C15.6153 10.6576 15.652 10.7515 15.4637 10.7888C14.9194 10.8967 14.3708 11.0529 13.8131 10.8919C13.2242 10.722 13.1502 10.4035 13.5638 9.93975C13.9547 9.50141 14.498 9.39582 15.0255 9.25559C15.1296 9.22789 15.1602 9.29772 15.1272 9.41709Z" fill="white"/>
<path d="M22.98 5.62601C23.5703 5.46409 24.126 5.53444 24.6826 5.66521C24.6734 5.82368 24.5532 5.86358 24.4842 5.94105C24.2768 6.17387 24.1486 6.42764 24.2382 6.74859C24.2905 6.93608 24.2642 7.02447 24.037 6.95378C23.6019 6.81835 23.1946 6.63835 22.8732 6.3041C22.5893 6.00889 22.6097 5.86043 22.98 5.62601Z" fill="white"/>
<path d="M18.4496 6.26997C18.4467 6.50433 18.525 6.6815 18.64 6.84843C18.7116 6.95251 18.7512 7.05335 18.557 7.06319C18.1121 7.08574 17.6792 7.06334 17.2868 6.81078C16.9338 6.5835 16.8904 6.25573 17.1993 5.97285C17.6197 5.58783 18.136 5.54292 18.7103 5.55427C18.6006 5.80243 18.4226 5.98781 18.4496 6.26997Z" fill="white"/>
<path d="M27.9638 9.76566C27.7162 9.96589 27.6439 10.225 27.6102 10.5391C27.1733 10.1781 26.8136 9.79336 26.6613 9.26025C26.5456 8.8553 26.7314 8.67446 27.1397 8.75768C27.5742 8.84626 27.9112 9.10749 28.248 9.369C28.4055 9.49126 28.501 9.61148 28.1926 9.65672C28.1204 9.66732 28.0544 9.72017 27.9638 9.76566Z" fill="white"/>
</g>
<defs>
<filter id="filter0_d_150_305" x="0" y="0" width="41" height="41" filterUnits="userSpaceOnUse" color-interpolation-filters="sRGB">
<feFlood flood-opacity="0" result="BackgroundImageFix"/>
<feColorMatrix in="SourceAlpha" type="matrix" values="0 0 0 0 0 0 0 0 0 0 0 0 0 0 0 0 0 0 127 0" result="hardAlpha"/>
<feOffset dy="4"/>
<feGaussianBlur stdDeviation="2"/>
<feComposite in2="hardAlpha" operator="out"/>
<feColorMatrix type="matrix" values="0 0 0 0 0 0 0 0 0 0 0 0 0 0 0 0 0 0 0.25 0"/>
<feBlend mode="normal" in2="BackgroundImageFix" result="effect1_dropShadow_150_305"/>
<feBlend mode="normal" in="SourceGraphic" in2="effect1_dropShadow_150_305" result="shape"/>
</filter>
<clipPath id="clip0_150_305">
<rect width="33" height="33" fill="white" transform="translate(4)"/>
</clipPath>
</defs>
</svg>
